<?xml version="1.0" encoding="UTF-8"?>
<svg version="1.1" xmlns="http://www.w3.org/2000/svg" width="485" height="486">
<path d="M0 0 C0.98961731 0.00054382 1.97923462 0.00108765 2.99884033 0.00164795 C19.04167616 0.04208256 34.46674135 0.91774864 50.1875 4.375 C51.17218262 4.58930664 52.15686523 4.80361328 53.17138672 5.02441406 C88.71118458 13.02305162 121.77904205 28.52920379 150.1875 51.375 C150.72568359 51.79894043 151.26386719 52.22288086 151.81835938 52.65966797 C166.77699777 64.48256695 180.78173768 78.29674824 191.99316406 93.73632812 C193.18983421 95.37820262 194.41608707 96.99416788 195.6484375 98.609375 C233.26158127 148.67126082 247.24228785 213.38106744 239.15625 274.9140625 C231.80186422 325.92371757 208.51196273 371.17367175 173.1875 408.375 C172.42928955 409.17623291 172.42928955 409.17623291 171.65576172 409.99365234 C163.74870101 418.29027201 155.3945678 425.55901383 146.1875 432.375 C145.61386719 432.80409668 145.04023438 433.23319336 144.44921875 433.67529297 C130.88373964 443.78433087 116.52197504 452.23678071 101.1875 459.375 C100.47142578 459.70886719 99.75535156 460.04273438 99.01757812 460.38671875 C79.73802467 469.2380177 59.14018172 475.10085031 38.1875 478.375 C37.06158447 478.55232666 35.93566895 478.72965332 34.77563477 478.91235352 C23.54926244 480.50558655 12.45201191 480.73378928 1.125 480.6875 C0.17562561 480.68534485 -0.77374878 480.6831897 -1.75189209 480.68096924 C-15.95469027 480.62925531 -29.85659002 480.24865223 -43.8125 477.375 C-44.81297363 477.17100586 -45.81344727 476.96701172 -46.84423828 476.75683594 C-84.31155798 468.8792388 -118.84337393 453.29591641 -148.8125 429.375 C-149.3482666 428.95492676 -149.8840332 428.53485352 -150.43603516 428.10205078 C-166.27353212 415.62236223 -181.18263275 400.87328096 -192.8125 384.375 C-193.33440918 383.64861328 -193.85631836 382.92222656 -194.39404297 382.17382812 C-231.54160397 330.10520533 -247.84216885 264.78658973 -237.35595703 201.41113281 C-230.22307635 161.56184974 -214.75330941 122.80964326 -188.8125 91.375 C-188.04421875 90.40433594 -187.2759375 89.43367188 -186.484375 88.43359375 C-172.95129872 71.77258946 -157.42600654 56.65227616 -139.8125 44.375 C-139.18714355 43.9315625 -138.56178711 43.488125 -137.91748047 43.03125 C-108.24566485 22.08093732 -73.76430612 7.84784139 -37.8125 2.375 C-36.69818604 2.19984863 -35.58387207 2.02469727 -34.43579102 1.84423828 C-22.95685649 0.21053224 -11.58280373 -0.02400305 0 0 Z M-28.625 26.14453125 C-29.63820312 26.31146484 -30.65140625 26.47839844 -31.6953125 26.65039062 C-33.23832031 26.91625977 -33.23832031 26.91625977 -34.8125 27.1875 C-36.35550781 27.4359668 -36.35550781 27.4359668 -37.9296875 27.68945312 C-39.44949219 27.9456543 -39.44949219 27.9456543 -41 28.20703125 C-41.90105469 28.35889893 -42.80210937 28.5107666 -43.73046875 28.66723633 C-47.85982194 29.61550905 -51.81493688 30.98118382 -55.8125 32.375 C-54.15400739 39.42567581 -52.49371025 46.47592415 -50.83115578 53.52564335 C-50.05908806 56.7996865 -49.28762513 60.07386961 -48.51757812 63.34838867 C-47.63046228 67.11934645 -46.74121643 70.88979657 -45.8515625 74.66015625 C-45.44050766 76.41054955 -45.44050766 76.41054955 -45.02114868 78.19630432 C-43.73695862 83.62996114 -42.41422134 89.02579138 -40.8125 94.375 C-39.08510224 91.78390336 -38.04888817 89.67554693 -36.93652344 86.80615234 C-36.57564636 85.88023285 -36.21476929 84.95431335 -35.84295654 84.00033569 C-35.26327118 82.49583359 -35.26327118 82.49583359 -34.671875 80.9609375 C-34.26721008 79.91789459 -33.86254517 78.87485168 -33.44561768 77.80020142 C-32.5865067 75.58329869 -31.72919576 73.36569769 -30.87353516 71.14746094 C-29.58566912 67.81004125 -28.29137613 64.47517223 -26.99609375 61.140625 C-22.40275418 49.28480718 -17.93851845 37.40194904 -13.8125 25.375 C-18.82765622 25.29810198 -23.66072553 25.3264735 -28.625 26.14453125 Z M12.1875 25.375 C12.81679849 29.00371564 13.80285165 32.23044212 15.1652832 35.64916992 C15.5727327 36.6776152 15.98018219 37.70606049 16.39997864 38.76567078 C17.06243843 40.41887077 17.06243843 40.41887077 17.73828125 42.10546875 C18.19349655 43.25106766 18.64871185 44.39666656 19.11772156 45.57698059 C20.32804228 48.62062025 21.54202801 51.66276343 22.7578125 54.70422363 C23.98162185 57.76837654 25.20049521 60.83449148 26.41992188 63.90039062 C30.3313831 73.72968391 34.25711091 83.55326214 38.1875 93.375 C38.8475 93.375 39.5075 93.375 40.1875 93.375 C42.25872013 86.16053311 44.32778088 78.94544991 46.39411068 71.72958088 C47.35372644 68.37874304 48.31407594 65.02811918 49.27612305 61.67797852 C50.38290352 57.82370955 51.48645465 53.96852247 52.58984375 50.11328125 C52.93466293 48.91415604 53.27948212 47.71503082 53.63475037 46.47956848 C54.11513512 44.7983918 54.11513512 44.7983918 54.60522461 43.08325195 C55.02825111 41.60765556 55.02825111 41.60765556 55.45982361 40.10224915 C56.14390705 37.53838148 56.69949585 34.98254651 57.1875 32.375 C50.35403819 29.82654724 43.56216787 28.36026327 36.375 27.1875 C35.37146484 27.01025391 34.36792969 26.83300781 33.33398438 26.65039062 C26.23314556 25.46919778 19.37916204 25.16637226 12.1875 25.375 Z M80.1875 40.375 C78.02402005 46.62294796 76.16259951 52.90568099 74.47607422 59.29760742 C74.2236496 60.24513382 73.97122498 61.19266022 73.71115112 62.16889954 C72.88530719 65.27200497 72.06360447 68.37618878 71.2421875 71.48046875 C70.66611427 73.65046115 70.08986846 75.82040775 69.51345825 77.99031067 C68.30968987 82.52454533 67.10797034 87.05931664 65.90771484 91.59448242 C64.37039936 97.40258306 62.82802583 103.20932628 61.284132 109.01568127 C60.0948223 113.49069892 58.90815776 117.96641469 57.72229385 122.44234657 C57.15455862 124.58395078 56.58601011 126.72533956 56.01662827 128.86650658 C55.22178078 131.85715998 54.43049393 134.84873344 53.64013672 137.84057617 C53.40532593 138.72123749 53.17051514 139.6018988 52.92858887 140.50924683 C51.80388605 144.78187363 50.81921363 148.99467953 50.1875 153.375 C56.00228056 148.54498067 61.35682653 143.35593733 66.6875 138 C67.50347656 137.18789062 68.31945312 136.37578125 69.16015625 135.5390625 C72.77615782 131.91725675 76.32326322 128.28366975 79.65625 124.3984375 C84.69715052 118.53641468 90.30081185 113.21860325 95.8046875 107.796875 C99.55864215 104.07715093 103.26071106 100.37099145 106.69921875 96.35546875 C111.62603714 90.60534738 117.15635949 85.43286293 122.59960938 80.17773438 C123.41880859 79.37271484 124.23800781 78.56769531 125.08203125 77.73828125 C126.19348511 76.65994019 126.19348511 76.65994019 127.32739258 75.55981445 C129.29114726 73.2532597 130.2338114 71.23230741 131.1875 68.375 C107.55933612 49.57587973 107.55933612 49.57587973 80.1875 40.375 Z M-132.8125 70.375 C-128.48241931 75.55156401 -123.93785501 80.38812589 -119.15478516 85.14624023 C-118.41263763 85.88853378 -117.67049011 86.63082733 -116.90585327 87.39561462 C-114.47345472 89.82732135 -112.03754267 92.25547539 -109.6015625 94.68359375 C-107.90598048 96.377309 -106.21062037 98.07124643 -104.51547241 99.76539612 C-100.069126 104.20793779 -95.61978385 108.6474672 -91.1697998 113.08636475 C-86.62309675 117.62280964 -82.07924898 122.16211252 -77.53515625 126.70117188 C-68.63038805 135.59523882 -59.72254742 144.48622192 -50.8125 153.375 C-49.17655703 150.10311406 -50.83984789 146.91129333 -51.79101562 143.54248047 C-52.01371124 142.7321788 -52.23640686 141.92187714 -52.46585083 141.08702087 C-53.20988858 138.38677497 -53.96423923 135.6895241 -54.71875 132.9921875 C-55.24207632 131.10214022 -55.76481286 129.21192956 -56.2869873 127.32156372 C-57.38914009 123.33718202 -58.49594079 119.35413224 -59.60644531 115.37207031 C-61.00981779 110.33982871 -62.40582553 105.30558753 -63.79879761 100.27045822 C-69.33368378 80.26536993 -74.89723035 60.27157558 -80.8125 40.375 C-96.75199687 40.375 -120.65401529 60.71973273 -132.8125 70.375 Z M-0.8125 64.375 C-3.74398708 71.49760611 -6.37413097 78.69004519 -8.8671875 85.9765625 C-9.2458345 87.07622849 -9.62448151 88.17589447 -10.01460266 89.30888367 C-11.2410894 92.87184086 -12.46431505 96.43590809 -13.6875 100 C-15.38791766 104.94449465 -17.09015436 109.88836154 -18.79296875 114.83203125 C-19.4287661 116.67866615 -19.4287661 116.67866615 -20.07740784 118.56260681 C-22.75275487 126.3250391 -25.45131756 134.07889345 -28.17578125 141.82421875 C-28.50626465 142.76422729 -28.83674805 143.70423584 -29.17724609 144.67272949 C-30.71321555 149.03875747 -32.25337403 153.40326117 -33.79833984 157.76611328 C-34.33830145 159.29847255 -34.87818299 160.83086003 -35.41796875 162.36328125 C-35.78683952 163.39832039 -35.78683952 163.39832039 -36.16316223 164.45426941 C-37.40179034 167.83297107 -37.40179034 167.83297107 -37.8125 171.375 C-38.36357233 171.28223282 -38.91464466 171.18946564 -39.48241615 171.09388733 C-52.90266655 168.83507689 -66.3238264 166.58174175 -79.74598122 164.33427429 C-86.23685318 163.24724306 -92.72741092 162.15840313 -99.21728516 161.06542969 C-105.4800071 160.01077983 -111.74350861 158.96088116 -118.0075798 157.91427612 C-120.39766206 157.51408098 -122.78745814 157.11217279 -125.17695999 156.70852661 C-128.52299426 156.14359877 -131.8699929 155.58476216 -135.21728516 155.02734375 C-136.69974731 154.77487381 -136.69974731 154.77487381 -138.2121582 154.51730347 C-142.79876058 153.75974564 -147.14368804 153.16875681 -151.8125 153.375 C-147.92340151 158.83498925 -143.67086857 163.81074207 -139.15234375 168.7578125 C-136.87621646 171.30373117 -134.70955289 173.9072456 -132.5625 176.5625 C-128.90403866 181.08440939 -125.13557284 185.49278899 -121.3125 189.875 C-117.57834832 194.15706292 -113.88790896 198.45831835 -110.3125 202.875 C-106.79074485 207.22085873 -103.16971123 211.46687478 -99.5 215.6875 C-98.6805188 216.6307312 -98.6805188 216.6307312 -97.84448242 217.59301758 C-95.59559713 220.17961494 -93.34523931 222.76490319 -91.09082031 225.34667969 C-89.43169819 227.24864644 -87.77793236 229.15515386 -86.125 231.0625 C-85.6199292 231.63846924 -85.1148584 232.21443848 -84.59448242 232.80786133 C-82.24924561 235.52116835 -80.19732199 238.04656821 -78.8125 241.375 C-79.47894531 242.15101563 -80.14539063 242.92703125 -80.83203125 243.7265625 C-85.78163162 249.51803038 -90.63826507 255.35839035 -95.3125 261.375 C-98.8797446 265.96589973 -102.53078311 270.45908214 -106.3125 274.875 C-110.02487996 279.21256075 -113.61964536 283.61848032 -117.125 288.125 C-121.23130783 293.40242624 -125.42709581 298.59615297 -129.6875 303.75 C-130.26951172 304.45423096 -130.85152344 305.15846191 -131.45117188 305.8840332 C-132.03576172 306.59132568 -132.62035156 307.29861816 -133.22265625 308.02734375 C-136.872293 312.44311416 -140.50469498 316.87265563 -144.125 321.3125 C-144.6823584 321.99296387 -145.2397168 322.67342773 -145.81396484 323.37451172 C-148.57966872 326.69551349 -148.57966872 326.69551349 -150.8125 330.375 C-128.94315585 326.57080495 -107.14351915 322.42363098 -85.34863281 318.21679688 C-80.56359904 317.2933093 -75.77770327 316.37437024 -70.9915905 315.45649338 C-67.27502152 314.74309624 -63.55897677 314.02699879 -59.84308243 313.31009674 C-58.07536785 312.96946774 -56.30747295 312.62977312 -54.53939438 312.29103851 C-52.09716223 311.82281396 -49.65567795 311.35087093 -47.21435547 310.87792969 C-46.48942398 310.73976837 -45.76449249 310.60160706 -45.01759338 310.45925903 C-41.30791679 309.75332432 -41.30791679 309.75332432 -37.8125 308.375 C-37.5546875 309.66083984 -37.296875 310.94667969 -37.03125 312.27148438 C-35.89181272 317.38052593 -34.189541 322.1528552 -32.3125 327.03125 C-31.79018799 328.41242508 -31.79018799 328.41242508 -31.25732422 329.82150269 C-30.11440212 332.84139502 -28.96342777 335.85815078 -27.8125 338.875 C-26.18416015 343.16800981 -24.56042011 347.46275127 -22.9375 351.7578125 C-22.51936035 352.86307281 -22.1012207 353.96833313 -21.67041016 355.10708618 C-18.62452823 363.17523054 -15.64027808 371.26454258 -12.6875 379.3671875 C-12.27580566 380.49574158 -11.86411133 381.62429565 -11.43994141 382.78704834 C-9.8323734 387.19660355 -8.22600298 391.60654986 -6.62988281 396.02026367 C-5.52874675 399.06470442 -4.42115306 402.10672778 -3.3125 405.1484375 C-2.82305908 406.51221024 -2.82305908 406.51221024 -2.32373047 407.90353394 C-2.02096191 408.7312027 -1.71819336 409.55887146 -1.40625 410.41162109 C-1.14521484 411.13288177 -0.88417969 411.85414246 -0.61523438 412.59725952 C0.15162303 414.57475726 0.15162303 414.57475726 2.1875 416.375 C2.70413208 414.89241699 2.70413208 414.89241699 3.23120117 413.37988281 C4.62050486 409.39335214 6.01037703 405.4070198 7.40032959 401.42071533 C8.05026165 399.55646974 8.70004185 397.6921712 9.34967041 395.82781982 C13.58316326 383.67855711 17.83120933 371.53452548 22.09944344 359.39743042 C23.54118579 355.2966538 24.98119576 351.19526839 26.42128277 347.09391022 C27.84365391 343.0437877 29.26902211 338.99473494 30.69641209 334.94637871 C31.3777472 333.01226823 32.05753723 331.07762303 32.73664856 329.14273071 C33.57372009 326.75784463 34.4132596 324.37382286 35.25566101 321.99081421 C35.6281044 320.92730743 36.00054779 319.86380066 36.38427734 318.76806641 C36.7098764 317.84297272 37.03547546 316.91787903 37.37094116 315.9647522 C38.16468981 313.44734352 38.722591 310.97136164 39.1875 308.375 C39.86077835 308.54461243 40.5340567 308.71422485 41.22773743 308.88897705 C52.40487771 311.59207396 63.71447249 313.47668496 75.04296875 315.421875 C77.23922516 315.80099221 79.43545788 316.18024662 81.63166809 316.55963135 C86.20590927 317.34881582 90.78064443 318.13505999 95.35571289 318.91943359 C101.22931497 319.92687228 107.10124192 320.94374226 112.97280407 321.96299362 C117.49373799 322.74638648 122.01567567 323.52385407 126.53792763 324.29959869 C128.70531169 324.67232831 130.87233605 325.04715569 133.03899193 325.42409515 C136.05125804 325.94744346 139.06481501 326.4625817 142.07885742 326.97558594 C142.9769664 327.13343063 143.87507538 327.29127533 144.80039978 327.4539032 C149.09135357 328.40139612 149.09135357 328.40139612 153.1875 327.375 C152.46046875 326.52679688 151.7334375 325.67859375 150.984375 324.8046875 C138.140625 309.8203125 138.140625 309.8203125 136.66137695 308.09448242 C135.67038227 306.93834932 134.6793332 305.78226285 133.68823242 304.6262207 C131.19844673 301.72194205 128.70957462 298.81689072 126.22265625 295.91015625 C121.06326284 289.88181237 115.88833909 283.86764094 110.6875 277.875 C105.00663861 271.32925576 99.35860079 264.75609298 93.72412109 258.17041016 C90.96385565 254.94527636 88.20045402 251.72283045 85.4375 248.5 C84.42186219 247.31511515 83.40623595 246.13022038 82.390625 244.9453125 C81.66359375 244.09710938 80.9365625 243.24890625 80.1875 242.375 C81.61350655 239.25604971 83.33365731 236.77842188 85.5 234.125 C86.2115625 233.2484375 86.923125 232.371875 87.65625 231.46875 C88.4915625 230.4478125 89.326875 229.426875 90.1875 228.375 C92.29337828 225.79305881 94.39688759 223.20919436 96.5 220.625 C97.05840576 219.93978271 97.61681152 219.25456543 98.19213867 218.54858398 C101.78291792 214.13318261 105.31599885 209.67777017 108.8125 205.1875 C112.84717105 200.01116213 117.01772035 194.97241148 121.27832031 189.98095703 C124.58194052 186.107055 127.78899941 182.17085479 130.94921875 178.1796875 C132.75047301 175.92261846 134.56648458 173.68059466 136.39453125 171.4453125 C136.96768066 170.7438208 137.54083008 170.0423291 138.13134766 169.31958008 C139.26347904 167.93524748 140.39717869 166.55219541 141.53271484 165.1706543 C144.92724981 161.01506149 148.11286889 156.77303449 151.1875 152.375 C144.35348127 152.93812073 137.72600754 153.92909129 131.01196289 155.30859375 C130.04971802 155.5022049 129.08747314 155.69581604 128.09606934 155.89529419 C124.949785 156.52962077 121.80496886 157.17092037 118.66015625 157.8125 C116.46210679 158.25745442 114.26398032 158.70202855 112.06578064 159.14624023 C107.47675118 160.07463429 102.88839144 161.00624607 98.30053711 161.94042969 C92.41455836 163.1388693 86.52738697 164.33132024 80.63976383 165.52165222 C76.10910007 166.43794593 71.57885837 167.35631106 67.04876518 168.27542114 C64.87706929 168.71598678 62.70529243 169.15615349 60.53343391 169.59591675 C57.50764709 170.20912906 54.48238665 170.82487107 51.45727539 171.44140625 C50.10843513 171.71417892 50.10843513 171.71417892 48.73234558 171.99246216 C47.90967194 172.16067474 47.08699829 172.32888733 46.23939514 172.50219727 C45.16793542 172.72009666 45.16793542 172.72009666 44.07483006 172.94239807 C41.97992811 173.3907019 41.97992811 173.3907019 39.1875 174.375 C38.9252639 173.46893005 38.9252639 173.46893005 38.6577301 172.54455566 C36.83746204 166.35439966 34.79377129 160.28173644 32.58984375 154.21875 C32.24296005 153.25754242 31.89607635 152.29633484 31.53868103 151.30599976 C30.4032562 148.16143481 29.26412578 145.01822594 28.125 141.875 C27.33126158 139.67864985 26.53780911 137.48219634 25.74462891 135.28564453 C24.08361249 130.68645304 22.42134447 126.08771662 20.75830078 121.48925781 C16.91729489 110.86465359 13.09380663 100.23374184 9.26907349 89.60327148 C7.34411992 84.25350045 5.41812657 78.90410381 3.4921875 73.5546875 C2.84618627 71.76025575 2.20018961 69.96582237 1.55419922 68.17138672 C1.15598465 67.06523514 1.15598465 67.06523514 0.74972534 65.93673706 C0.4714238 65.16367722 0.4714238 65.16367722 0.1875 64.375 C-0.1425 64.375 -0.4725 64.375 -0.8125 64.375 Z M-153.66015625 88.95703125 C-161.68369542 97.03717387 -168.71152971 105.71908716 -175.375 114.9375 C-175.81706787 115.54553467 -176.25913574 116.15356934 -176.71459961 116.7800293 C-179.05921772 119.78078047 -179.05921772 119.78078047 -179.8125 123.375 C-171.18118819 124.68403406 -162.5491721 125.98829267 -153.91622734 127.28651428 C-149.90733626 127.88952323 -145.89870408 128.4941544 -141.890625 129.10253906 C-138.02031111 129.68995061 -134.14936829 130.27304047 -130.27795792 130.85317993 C-128.80340647 131.07491281 -127.32908546 131.29818384 -125.85500717 131.52304077 C-123.78528075 131.83848564 -121.71479159 132.14837812 -119.64404297 132.45703125 C-118.46711884 132.63468018 -117.2901947 132.8123291 -116.0776062 132.99536133 C-112.95380983 133.3585697 -109.95376693 133.44504355 -106.8125 133.375 C-110.91296579 128.53744141 -115.10114476 123.81441426 -119.4375 119.1875 C-120.06487061 118.5169458 -120.69224121 117.8463916 -121.33862305 117.15551758 C-127.83488514 110.2644507 -134.54301341 103.58792759 -141.28564453 96.9387207 C-142.10532715 96.12749756 -142.92500977 95.31627441 -143.76953125 94.48046875 C-144.50147705 93.76012451 -145.23342285 93.03978027 -145.98754883 92.29760742 C-147.8125 90.375 -147.8125 90.375 -149.8125 87.375 C-151.96470411 87.15820182 -151.96470411 87.15820182 -153.66015625 88.95703125 Z M152.1875 87.375 C145.1049731 93.29099306 138.66283448 99.815726 132.1875 106.375 C120.13316896 118.58559089 120.13316896 118.58559089 113.80078125 123.98876953 C111.83691284 125.67624605 109.99900392 127.46325641 108.1875 129.3125 C107.32125 130.19228516 107.32125 130.19228516 106.4375 131.08984375 C105.81875 131.72599609 105.81875 131.72599609 105.1875 132.375 C108.2397285 133.90111425 110.5958855 132.95872192 113.93212891 132.38696289 C114.62492447 132.27006607 115.31772003 132.15316925 116.0315094 132.0327301 C118.32678919 131.6438615 120.6203739 131.24579389 122.9140625 130.84765625 C124.50294511 130.57661786 126.09192561 130.3061528 127.68099976 130.03623962 C131.86757453 129.32353542 136.05277039 128.60302869 140.23773193 127.88092041 C144.50664484 127.14573842 148.77680862 126.41789998 153.046875 125.68945312 C161.42832916 124.25850971 169.80834162 122.81932576 178.1875 121.375 C178.1875 116.6200255 177.28388667 115.68415296 174.4375 112 C174.04208008 111.48759766 173.64666016 110.97519531 173.23925781 110.44726562 C169.90386821 106.17612106 166.43949279 102.01005371 162.9375 97.875 C162.44282227 97.28799316 161.94814453 96.70098633 161.43847656 96.09619141 C158.59507647 92.79162198 155.7041696 89.99325036 152.1875 87.375 Z M191.1875 142.375 C189.82655695 143.69053764 189.82655695 143.69053764 188.46484375 145.453125 C187.93125244 146.11296387 187.39766113 146.77280273 186.84790039 147.45263672 C186.27934326 148.1695166 185.71078613 148.88639648 185.125 149.625 C184.5364624 150.3586377 183.9479248 151.09227539 183.34155273 151.84814453 C179.33627818 156.86417767 175.44649824 161.95675928 171.62890625 167.1171875 C168.5503854 171.25604395 165.36247947 175.31001635 162.1875 179.375 C156.77027186 186.31452677 151.42967784 193.30222038 146.1875 200.375 C149.79132857 201.63999693 152.19435125 201.09886624 155.84228516 200.12744141 C156.97671051 199.83028229 158.11113586 199.53312317 159.27993774 199.22695923 C160.49982391 198.89682831 161.71971008 198.56669739 162.9765625 198.2265625 C164.85871964 197.72858658 164.85871964 197.72858658 166.77890015 197.22055054 C169.43165106 196.51836345 172.08265212 195.81003286 174.73242188 195.09667969 C178.13110477 194.18173196 181.5323971 193.27701364 184.93485451 192.37621498 C188.17878904 191.51706669 191.42146445 190.6532427 194.6640625 189.7890625 C195.88799713 189.46298004 197.11193176 189.13689758 198.37295532 188.80093384 C199.50107635 188.4974704 200.62919739 188.19400696 201.79150391 187.88134766 C202.78759674 187.61407867 203.78368958 187.34680969 204.80996704 187.07144165 C207.17583505 186.45489233 207.17583505 186.45489233 209.1875 185.375 C205.91127068 170.20088528 199.94192391 156.28351788 193.1875 142.375 C192.5275 142.375 191.8675 142.375 191.1875 142.375 Z M-192.8125 145.375 C-203.31971484 163.97663852 -203.31971484 163.97663852 -207.8125 184.375 C-196.29291167 188.33397226 -184.66984065 191.90063948 -172.99194336 195.36132812 C-169.95797266 196.26248303 -166.9272867 197.1741912 -163.89648438 198.0859375 C-161.96633808 198.65950151 -160.03600644 199.23244225 -158.10546875 199.8046875 C-157.20040085 200.07852264 -156.29533295 200.35235779 -155.36283875 200.63449097 C-154.5304921 200.87869781 -153.69814545 201.12290466 -152.84057617 201.37451172 C-152.10860519 201.59259491 -151.37663422 201.8106781 -150.6224823 202.03536987 C-148.72073987 202.58099342 -148.72073987 202.58099342 -146.8125 201.375 C-151.00060656 196.1113978 -155.2169195 190.87251215 -159.46704102 185.65893555 C-164.21658505 179.83233396 -168.93268404 173.98481652 -173.5625 168.0625 C-182.68960325 156.28488704 -182.68960325 156.28488704 -192.8125 145.375 Z M-212.8125 210.375 C-215.65809477 216.06618955 -214.97111712 223.85740637 -214.98046875 230.109375 C-214.98379715 230.90925842 -214.98712555 231.70914185 -214.99055481 232.53326416 C-214.99557973 234.2139021 -214.99796452 235.89454987 -214.99780273 237.57519531 C-214.99998276 240.10499063 -215.01816847 242.63434434 -215.03710938 245.1640625 C-215.06818532 254.44859957 -214.62934583 263.23827275 -212.8125 272.375 C-207.94338803 271.76655881 -203.36229853 270.80634395 -198.64086914 269.4765625 C-197.95973053 269.28604813 -197.27859192 269.09553375 -196.57681274 268.89924622 C-194.33254955 268.27038952 -192.09012388 267.63522699 -189.84765625 267 C-188.25291174 266.55177597 -186.65805565 266.10394876 -185.06309509 265.65649414 C-180.85092226 264.47365168 -176.64027489 263.28546631 -172.42993164 262.09613037 C-168.26863003 260.9216015 -164.10594694 259.75199277 -159.94335938 258.58203125 C-152.61879851 256.52260604 -145.29540351 254.45907212 -137.97252846 252.3936615 C-129.43992012 249.98732856 -120.90558924 247.58712962 -112.37109375 245.1875 C-110.98169315 244.79679856 -109.59229389 244.40609235 -108.20289612 244.01538086 C-105.07278149 243.13519197 -101.94265037 242.25506177 -98.8125 241.375 C-102.48525078 239.28424284 -106.39980046 238.29730681 -110.45727539 237.23950195 C-111.22403595 237.0358754 -111.99079651 236.83224884 -112.78079224 236.62245178 C-115.32282027 235.94851722 -117.86645476 235.2808692 -120.41015625 234.61328125 C-122.2007343 234.14002859 -123.99121421 233.66640449 -125.78160095 233.19242859 C-130.5163747 231.94013119 -135.25255214 230.69322284 -139.98901367 229.44732666 C-144.7038807 228.20598964 -149.41727642 226.95909266 -154.13085938 225.71289062 C-173.67788893 220.54799616 -193.23406781 215.41967495 -212.8125 210.375 Z M203.76391602 211.359375 C202.63103401 211.67659767 202.63103401 211.67659767 201.4752655 212.00022888 C198.96291365 212.70475243 196.45217185 213.41484598 193.94140625 214.125 C192.1744021 214.62182363 190.40730553 215.11831866 188.64012146 215.61450195 C183.95959481 216.92972155 179.2804293 218.24972335 174.60150146 219.57061768 C169.95199984 220.8821993 165.30110896 222.18883451 160.65039062 223.49609375 C140.81563704 229.07426467 120.9919036 234.68994343 101.1875 240.375 C103.89151309 241.81404582 106.44186414 242.82068579 109.40434265 243.58911133 C110.23825027 243.80773834 111.0721579 244.02636536 111.93133545 244.25161743 C112.83788879 244.48440399 113.74444214 244.71719055 114.6784668 244.95703125 C116.12069359 245.3330397 116.12069359 245.3330397 117.59205627 245.71664429 C120.77249517 246.54462327 123.95456416 247.36614179 127.13671875 248.1875 C129.35155597 248.76242967 131.56630183 249.33771139 133.78096008 249.91333008 C138.42642795 251.11976855 143.07264831 252.32324889 147.71948242 253.52441406 C153.66087889 255.06026317 159.60089824 256.60135609 165.54042339 258.14442444 C170.11697314 259.33314351 174.69398273 260.52008324 179.27115822 261.70639038 C181.46038526 262.27380909 183.64953293 262.84153413 185.83859825 263.40957642 C188.90849707 264.20568179 191.97894182 264.99964524 195.04956055 265.79296875 C195.94599274 266.02575531 196.84242493 266.25854187 197.76602173 266.49838257 C203.21831542 267.90405381 208.68475521 269.18144684 214.1875 270.375 C215.96310863 261.06316634 216.50288944 252.07727587 216.44824219 242.63696289 C216.43752803 240.44324004 216.44820195 238.25033877 216.4609375 236.05664062 C216.46857045 226.97991564 215.7476956 218.33723976 214.1875 209.375 C210.49348905 209.375 207.28505109 210.35791494 203.76391602 211.359375 Z M147.1875 278.375 C151.25041968 283.8971827 155.48568961 289.23479583 159.875 294.5 C164.21737291 299.738273 168.5097281 305.00447344 172.6875 310.375 C176.95903782 315.86053689 181.33120954 321.25738951 185.75 326.625 C186.3584375 327.36492187 186.966875 328.10484375 187.59375 328.8671875 C190.77202229 332.72776775 190.77202229 332.72776775 194.1875 336.375 C200.16918171 323.65033163 204.97593153 310.78740982 209.1875 297.375 C206.23272518 295.40515012 204.02150315 294.59184795 200.64624023 293.58740234 C199.51173935 293.24720062 198.37723846 292.9069989 197.20835876 292.55648804 C195.98331131 292.19495636 194.75826385 291.83342468 193.49609375 291.4609375 C192.23990738 291.08643463 190.98372101 290.71193176 189.68946838 290.32608032 C187.03324495 289.53453915 184.37603435 288.74643505 181.71801758 287.9609375 C178.30771516 286.95298692 174.89951157 285.93814875 171.49195766 284.92094994 C168.24422688 283.9521072 164.9951425 282.98785161 161.74609375 282.0234375 C160.51902206 281.65785736 159.29195038 281.29227722 158.0276947 280.9156189 C156.89634598 280.5817215 155.76499725 280.2478241 154.59936523 279.90380859 C153.10070168 279.45985245 153.10070168 279.45985245 151.57176208 279.00692749 C149.27638904 278.28960154 149.27638904 278.28960154 147.1875 278.375 Z M-153.66088867 281.73022461 C-154.8619072 282.05063217 -156.06292572 282.37103973 -157.30033875 282.70115662 C-158.61043107 283.05970672 -159.92047324 283.4184401 -161.23046875 283.77734375 C-162.57119899 284.13822918 -163.91212914 284.49837271 -165.25325012 284.85780334 C-168.78160524 285.80556891 -172.30715248 286.76339689 -175.83221436 287.72332764 C-179.43012478 288.70118695 -183.03059289 289.66953047 -186.63085938 290.63867188 C-193.69394768 292.54146377 -200.75409743 294.45489047 -207.8125 296.375 C-207.34702642 298.10933008 -206.87949989 299.84310924 -206.41113281 301.57666016 C-206.15100403 302.54221832 -205.89087524 303.50777649 -205.62286377 304.50259399 C-204.45134317 308.65515229 -203.05484367 312.70326354 -201.5625 316.75 C-201.26529053 317.55928955 -200.96808105 318.3685791 -200.66186523 319.20239258 C-197.98107395 326.29893548 -194.66898346 332.84593833 -190.8125 339.375 C-186.52352129 335.30965519 -182.96253274 330.87531058 -179.375 326.1875 C-178.12772391 324.57022014 -176.88032461 322.9530353 -175.6328125 321.3359375 C-174.99891602 320.5119043 -174.36501953 319.68787109 -173.71191406 318.83886719 C-171.31570729 315.73057429 -168.90265733 312.63563715 -166.48852539 309.54125977 C-159.20152299 300.19944754 -151.99344112 290.79849417 -144.8125 281.375 C-148.48352606 280.15132465 -149.95429507 280.7278125 -153.66088867 281.73022461 Z M-50.8125 328.375 C-52.17007174 329.7048662 -53.52333496 331.03913071 -54.875 332.375 C-56.00615234 333.48875 -56.00615234 333.48875 -57.16015625 334.625 C-59.21791809 336.75852627 -61.15907516 338.91207008 -63.08984375 341.15625 C-67.62390433 346.38215466 -72.56293781 351.17462497 -77.49609375 356.01953125 C-81.5307249 360.01038702 -85.35221738 364.09152009 -89.05273438 368.39257812 C-92.77641909 372.58740607 -96.84905539 376.44916927 -100.8515625 380.375 C-104.11952702 383.60511165 -107.28586914 386.86120398 -110.28515625 390.34375 C-114.06661754 394.73415436 -118.13006047 398.8040625 -122.25 402.875 C-122.98154297 403.60203125 -123.71308594 404.3290625 -124.46679688 405.078125 C-126.24639824 406.84609499 -128.02830918 408.61166378 -129.8125 410.375 C-127.92954034 414.63625847 -125.14369709 416.53617609 -121.3125 419 C-120.32467529 419.64533691 -120.32467529 419.64533691 -119.31689453 420.30371094 C-100.17891202 433.71056998 -100.17891202 433.71056998 -78.8125 440.375 C-73.06908013 419.71183044 -67.43252532 399.02041627 -61.89026451 378.30238914 C-60.68898541 373.81213567 -59.48373564 369.32302504 -58.26977539 364.83618164 C-57.07202196 360.40891942 -55.88361331 355.97924973 -54.70193672 351.54767036 C-54.25508922 349.87821678 -53.80493927 348.20964334 -53.35136223 346.54200554 C-52.72516056 344.23725086 -52.11102465 341.92960234 -51.49975586 339.62084961 C-51.21866722 338.6026992 -51.21866722 338.6026992 -50.93190002 337.5639801 C-50.05212263 334.18851538 -49.51707252 331.68524668 -50.8125 328.375 Z M51.1875 328.375 C53.88043638 339.34022307 56.74406951 350.24737622 59.7421875 361.1328125 C60.17066498 362.69387406 60.59897524 364.25498153 61.02713013 365.81613159 C62.14439146 369.88829452 63.26376737 373.95987299 64.38366699 378.03131104 C65.50567785 382.11168985 66.62585359 386.19257226 67.74609375 390.2734375 C69.04510603 395.00524768 70.34421674 399.73703053 71.64422607 404.46856689 C74.83978785 416.10010877 78.02102651 427.7355025 81.1875 439.375 C86.21151915 438.64711827 90.20834461 437.14139777 94.6875 434.8125 C95.73526611 434.27568604 95.73526611 434.27568604 96.80419922 433.72802734 C98.93964019 432.62428912 101.06531845 431.50400058 103.1875 430.375 C103.80786133 430.0454834 104.42822266 429.7159668 105.06738281 429.37646484 C111.98268338 425.66143063 118.53413855 421.59098103 124.9375 417.0625 C125.53449707 416.64178223 126.13149414 416.22106445 126.74658203 415.78759766 C129.49428177 413.79749744 131.28356236 412.23090646 133.1875 409.375 C122.64671184 398.8108848 112.10308625 388.24960804 101.55604649 377.69173431 C96.65929696 372.78982141 91.76349148 367.88697246 86.86987305 362.98193359 C82.15188443 358.25293965 77.43131367 353.5265379 72.7091198 348.80174255 C70.90323124 346.99399885 69.0982265 345.1853718 67.29409981 343.37586975 C64.77722155 340.85178766 62.25728749 338.33079627 59.73657227 335.81054688 C58.98275772 335.05313705 58.22894318 334.29572723 57.45228577 333.5153656 C56.42790405 332.49304588 56.42790405 332.49304588 55.38282776 331.45007324 C54.7864277 330.85275139 54.19002764 330.25542953 53.57555485 329.64000702 C52.37731785 328.26273543 52.37731785 328.26273543 51.1875 328.375 Z M107.1875 347.375 C113.03389566 354.50060702 119.6105284 360.86491988 126.16235352 367.3293457 C131.54079686 372.64243946 136.84005462 377.96155482 141.75463867 383.71508789 C143.61473223 385.86993132 145.59499422 387.88060836 147.625 389.875 C148.64400391 390.88046875 148.64400391 390.88046875 149.68359375 391.90625 C150.17988281 392.3909375 150.67617188 392.875625 151.1875 393.375 C163.30119728 388.55769248 174.81896424 369.2015108 181.1875 358.375 C179.34603661 356.53353661 176.3948182 356.70942901 173.91113281 356.34350586 C173.25577545 356.24582413 172.60041809 356.1481424 171.92520142 356.04750061 C169.74760479 355.72409895 167.56916564 355.4068191 165.390625 355.08984375 C163.8794171 354.86733162 162.36824813 354.64455492 160.8571167 354.42152405 C157.68312615 353.95403267 154.5087182 353.48951574 151.33398438 353.02709961 C147.27007322 352.43496563 143.20721545 351.83593642 139.14464188 351.23470211 C136.02059395 350.77307915 132.89604147 350.31494943 129.77132416 349.85788155 C128.27369896 349.63842775 126.77622483 349.41794041 125.27890778 349.19639397 C123.180249 348.88644943 121.08096228 348.58116902 118.98144531 348.27709961 C117.78755188 348.10246689 116.59365845 347.92783417 115.36358643 347.74790955 C112.59571189 347.42292883 109.96939099 347.29942514 107.1875 347.375 Z M-117.55224609 350.38476562 C-118.19685791 350.4920549 -118.84146973 350.59934418 -119.50561523 350.70988464 C-121.61652568 351.06239459 -123.72620485 351.42176428 -125.8359375 351.78125 C-127.30702696 352.02829846 -128.77818904 352.27491477 -130.24942017 352.52111816 C-134.10687539 353.16783128 -137.96332025 353.82038406 -141.81958008 354.47418213 C-145.76063396 355.14128443 -149.70262073 355.80282568 -153.64453125 356.46484375 C-161.36810825 357.76280637 -169.09062613 359.06694338 -176.8125 360.375 C-176.8125 370.2261813 -160.21329377 384.87933008 -153.45703125 391.78125 C-152.91433594 392.3071875 -152.37164062 392.833125 -151.8125 393.375 C-146.61472249 391.89088085 -143.69685507 388.62957053 -140.04296875 384.86328125 C-139.40313553 384.21683151 -138.76330231 383.57038177 -138.1040802 382.90434265 C-136.06214353 380.8390589 -134.03062142 378.76390498 -132 376.6875 C-129.97845146 374.63065113 -127.9547057 372.5760374 -125.92805481 370.5242157 C-124.67022158 369.24968849 -123.41550297 367.97207646 -122.16459656 366.69075012 C-118.44711359 362.91113545 -114.59642982 359.37239822 -110.55464172 355.94084167 C-108.34959103 353.95893617 -106.5537216 351.76917971 -104.8125 349.375 C-109.19059717 349.26785446 -113.23648054 349.65720362 -117.55224609 350.38476562 Z M-38.8125 386.375 C-41.05801869 393.99516719 -43.2927816 401.61837062 -45.51388645 409.24568558 C-46.54557566 412.78726969 -47.58093466 416.32769345 -48.62475586 419.86572266 C-49.63198688 423.28022984 -50.6294782 426.69744436 -51.62028313 430.11675262 C-51.99997467 431.42070352 -52.3831633 432.72364137 -52.76989937 434.02552032 C-53.31100906 435.84925546 -53.83854883 437.67700025 -54.36547852 439.50488281 C-54.6697023 440.54412903 -54.97392609 441.58337524 -55.28736877 442.65411377 C-55.80926078 445.35821646 -55.73735676 446.81690286 -54.8125 449.375 C-50.98029918 450.19290269 -47.14655471 451.00333613 -43.3125 451.8125 C-42.23484375 452.04259766 -41.1571875 452.27269531 -40.046875 452.50976562 C-32.09154301 454.18329583 -24.47573062 455.53026398 -16.3125 455.4375 C-15.2709375 455.42847656 -14.229375 455.41945313 -13.15625 455.41015625 C-12.3828125 455.39855469 -11.609375 455.38695312 -10.8125 455.375 C-13.01578422 447.35097582 -15.94610818 439.70720903 -19.06640625 432 C-19.57323184 430.74122571 -20.07981408 429.48235342 -20.58616638 428.22338867 C-21.63972845 425.60688299 -22.69651235 422.99170896 -23.75561523 420.37744141 C-25.11278613 417.02653502 -26.46118209 413.67217543 -27.8071909 410.31677246 C-28.84756502 407.72626876 -29.8927425 405.13772438 -30.93937492 402.54974365 C-31.68116303 400.71286513 -32.41868368 398.87426515 -33.15614319 397.03564453 C-33.60678635 395.92688965 -34.0574295 394.81813477 -34.52172852 393.67578125 C-35.11438255 392.20878784 -35.11438255 392.20878784 -35.7190094 390.7121582 C-36.70817945 388.25211173 -36.70817945 388.25211173 -38.8125 386.375 Z M41.1875 386.375 C35.62803371 400.15289112 30.20889939 413.98061538 24.89355469 427.85449219 C23.66426998 431.06058616 22.42981703 434.26466283 21.1953125 437.46875 C20.41114525 439.51290076 19.62727907 441.55716704 18.84375 443.6015625 C18.47511841 444.55656647 18.10648682 445.51157043 17.72668457 446.49551392 C17.39213257 447.37178436 17.05758057 448.24805481 16.71289062 449.15087891 C16.26943298 450.30615585 16.26943298 450.30615585 15.8170166 451.48477173 C15.082175 453.35920606 15.082175 453.35920606 15.1875 455.375 C29.19720866 455.14533264 42.53339778 452.33937746 56.1875 449.375 C55.55333734 441.93987124 54.02717415 434.92236678 52.24609375 427.68359375 C51.95896011 426.49774185 51.67182648 425.31188995 51.37599182 424.09010315 C50.46419645 420.32961578 49.54472093 416.57105594 48.625 412.8125 C48.00274578 410.25207688 47.38099564 407.69153119 46.75976562 405.13085938 C45.24150804 398.87747601 43.71695261 392.62565415 42.1875 386.375 C41.8575 386.375 41.5275 386.375 41.1875 386.375 Z " fill="#0C964A" transform="translate(242.8125,2.625)"/>
</svg>
