<?xml version="1.0" encoding="UTF-8"?>
<svg version="1.1" xmlns="http://www.w3.org/2000/svg" width="1224" height="368">
<path d="M0 0 C2.234375 -0.38671875 2.234375 -0.38671875 5 0 C6.69847075 2.06729925 7.93957532 3.89103102 9.25 6.1875 C10.02218369 7.47029201 10.79699564 8.75150502 11.57421875 10.03125 C11.96915527 10.68867187 12.3640918 11.34609375 12.77099609 12.0234375 C15.41592452 16.27718016 18.41867988 20.29495621 21.34765625 24.35546875 C23 27 23 27 23 30 C23.66 30 24.32 30 25 30 C26.13669755 31.74553555 27.18312389 33.55011526 28.1875 35.375 C31.47923597 41.18154047 35.09510879 46.59389505 39 52 C40.21300231 53.68414699 41.42134905 55.37165699 42.625 57.0625 C43.15351563 57.79597656 43.68203125 58.52945313 44.2265625 59.28515625 C45.71918872 61.5701237 47.03322999 63.84808557 48.3359375 66.2421875 C50.96749568 71.03612279 53.9304667 75.54022089 57 80.0625 C61.46251092 86.69230638 65.8925824 93.34081257 70.26953125 100.02734375 C70.7263327 100.72505386 71.18313416 101.42276398 71.65377808 102.14161682 C73.48539932 104.94039917 75.31630487 107.73964123 77.14428711 110.540802 C82.96350063 119.45701008 88.89034028 128.27958831 95 137 C95.42128174 136.11103027 95.42128174 136.11103027 95.85107422 135.20410156 C101.60903021 123.16099475 108.86989893 111.85630348 115.75610352 100.43676758 C118.12810616 96.49104739 120.42544913 92.51021758 122.6875 88.5 C126.94957966 80.98121029 131.46214087 73.61957882 135.98901367 66.2578125 C139.05664404 61.25533439 142.02456028 56.22514637 144.8449707 51.0793457 C146.64679012 47.83561372 148.57246864 44.67006527 150.5 41.5 C153.31204958 36.84360555 156.06867587 32.17355683 158.67578125 27.3984375 C160.84437734 23.47065579 163.0880517 19.58566016 165.32250977 15.69506836 C167.22518924 12.38217668 167.22518924 12.38217668 169 9 C169.66 9 170.32 9 171 9 C171.103125 8.443125 171.20625 7.88625 171.3125 7.3125 C172.1782526 4.40042308 173.08445652 2.37791604 175 0 C178.11328125 -0.140625 178.11328125 -0.140625 181 0 C181.45890625 0.9178125 181.9178125 1.835625 182.390625 2.78125 C182.83390137 3.66756104 182.83390137 3.66756104 183.28613281 4.57177734 C183.93183538 5.86350959 184.57701277 7.15550449 185.22167969 8.44775391 C186.5527956 11.11469646 187.88639049 13.77917151 189.25 16.4296875 C191.17486851 20.17415826 192.73104407 23.9061884 194.15234375 27.8671875 C195.13007996 30.32729796 196.29320999 32.64405771 197.5 35 C199.28429481 38.48940493 200.75407917 41.94961545 202.07421875 45.64453125 C203.56888703 49.44742143 205.35546945 53.11510641 207.10107422 56.80737305 C209.47443899 61.84016133 211.75458841 66.90895058 214 72 C216.45969508 77.57184171 218.96575265 83.11568468 221.5625 88.625 C223.96081939 93.71464613 226.26224621 98.83777434 228.5 104 C232.61960364 113.49345161 236.87748071 122.92668138 241.625 132.125 C244.07943704 136.94506221 245.94499916 141.93907488 247.7890625 147.01953125 C248.95836388 149.89752143 250.37770009 152.35935423 252 155 C252.71787277 156.89257368 253.43297195 158.78640611 254.1171875 160.69140625 C255.50722559 164.32641737 257.16424436 167.83418415 258.79296875 171.3671875 C260.25438338 174.5548686 261.63606423 177.76962581 263 181 C265.68171891 177.68938241 268.25527342 174.32844382 270.75 170.875 C273.40746906 167.20143983 276.07262908 163.53407359 278.75 159.875 C282.30585654 154.98304627 285.81639814 150.05974462 289.3125 145.125 C289.82844727 144.39909668 290.34439453 143.67319336 290.87597656 142.92529297 C292.94924941 139.99099249 294.93708967 137.10934752 296.73046875 133.9921875 C297.14941406 133.33476562 297.56835938 132.67734375 298 132 C298.66 132 299.32 132 300 132 C300.21398437 131.34257812 300.42796875 130.68515625 300.6484375 130.0078125 C302.48497996 125.92070934 305.00824321 122.4978616 307.625 118.875 C308.16624512 118.11727295 308.70749023 117.3595459 309.26513672 116.57885742 C312.82413928 111.60461923 316.41452031 106.65297118 320.0234375 101.71484375 C326.62286061 92.65041873 333.07856637 83.48218631 339.53808594 74.31787109 C342.67662591 69.86741739 345.82991224 65.42802867 349 61 C352.64382789 55.90903517 356.26594977 50.80317903 359.875 45.6875 C360.37845947 44.97392334 360.88191895 44.26034668 361.40063477 43.52514648 C363.92705304 39.94293564 366.45107648 36.35905572 368.97265625 32.7734375 C374.88538924 24.37282262 380.85187196 16.01494956 386.90014648 7.71118164 C387.42165283 6.99309326 387.94315918 6.27500488 388.48046875 5.53515625 C389.17499146 4.58201538 389.17499146 4.58201538 389.88354492 3.60961914 C391.0663936 1.98579218 391.0663936 1.98579218 392 0 C397.08447025 -0.78896952 397.08447025 -0.78896952 400 0 C402.83732403 2.93823305 406 6.76923163 406 11 C406.66 11 407.32 11 408 11 C409.15625 12.4765625 409.15625 12.4765625 410.5 14.625 C413.20059418 18.81785404 416.02564766 22.89055586 418.9375 26.9375 C421.75323624 30.85888096 424.55916351 34.78437356 427.3125 38.75 C431.1003206 44.18276617 434.99535614 49.53704443 438.88110352 54.89990234 C442.71275631 60.1960031 446.49466488 65.52458538 450.25 70.875 C454.38897854 76.76876527 458.63284041 82.55877842 462.98046875 88.30078125 C465.49522132 91.66189155 467.90695368 95.08576669 470.29296875 98.5390625 C471.51026904 100.29398054 472.7438796 102.03763167 473.98828125 103.7734375 C474.63152344 104.67320312 475.27476562 105.57296875 475.9375 106.5 C476.52402344 107.3146875 477.11054687 108.129375 477.71484375 108.96875 C479 111 479 111 479 113 C479.66 113 480.32 113 481 113 C482.79225017 115.40475317 484.47156252 117.81461143 486.125 120.3125 C487.12775581 121.80025521 488.13166562 123.28723327 489.13671875 124.7734375 C489.62833496 125.50272461 490.11995117 126.23201172 490.62646484 126.98339844 C492.34533762 129.50701897 494.12876907 131.97762593 495.9375 134.4375 C499.49110827 139.28939939 503.00838064 144.16585995 506.5 149.0625 C507.04132568 149.81394287 507.58265137 150.56538574 508.14038086 151.33959961 C508.64061768 152.0435083 509.14085449 152.74741699 509.65625 153.47265625 C510.10806641 154.10437744 510.55988281 154.73609863 511.02539062 155.38696289 C512 157 512 157 512 159 C512.66 159 513.32 159 514 159 C515.28369141 160.65673828 515.28369141 160.65673828 516.7265625 162.9453125 C519.79578123 167.70455585 523.04383775 172.29658283 526.375 176.875 C526.94516846 177.66165039 527.51533691 178.44830078 528.1027832 179.25878906 C531.12509331 183.42684231 534.15599714 187.58862948 537.1875 191.75 C538.45843939 193.49992298 539.72926396 195.24992935 541 197 C541.43006348 197.58861816 541.86012695 198.17723633 542.30322266 198.78369141 C543.70675724 200.70665584 545.10381746 202.63419307 546.5 204.5625 C546.94625732 205.17125977 547.39251465 205.78001953 547.85229492 206.40722656 C551 210.77253949 551 210.77253949 551 213 C551.99 213.33 552.98 213.66 554 214 C554.33 216.31 554.66 218.62 555 221 C545.79425532 220.98514059 536.58913198 220.94361797 527.38368511 220.86790943 C523.1093155 220.83359659 518.8353049 220.80852287 514.56079102 220.80444336 C510.43669102 220.80016946 506.31340149 220.77178384 502.18955421 220.72656822 C500.6151177 220.71356384 499.04058434 220.70929595 497.46610069 220.71384621 C495.26255831 220.71873197 493.06140338 220.69275739 490.8581543 220.65942383 C489.60350876 220.65276199 488.34886322 220.64610016 487.05619812 220.63923645 C484 220 484 220 482.07136536 217.58378601 C481 215 481 215 481 213 C480.34 213 479.68 213 479 213 C477.45947266 210.96801758 477.45947266 210.96801758 475.6640625 208.14453125 C475.01179687 207.12939453 474.35953125 206.11425781 473.6875 205.06835938 C473.006875 203.99392578 472.32625 202.91949219 471.625 201.8125 C470.28624281 199.71331847 468.94516988 197.61561166 467.6015625 195.51953125 C466.70945068 194.11344604 466.70945068 194.11344604 465.79931641 192.67895508 C463.99594494 189.99396252 462.03478567 187.51196286 460 185 C458.98073916 183.34504226 457.98170802 181.67750623 457 180 C455.59524222 177.84510156 454.1806101 175.70006187 452.75 173.5625 C452.33032959 172.93432373 451.91065918 172.30614746 451.47827148 171.65893555 C447.36886123 165.52368761 443.21835434 159.41634836 439.0625 153.3125 C438.08651855 151.87789429 438.08651855 151.87789429 437.09082031 150.41430664 C436.47432617 149.51059326 435.85783203 148.60687988 435.22265625 147.67578125 C434.67359619 146.87052002 434.12453613 146.06525879 433.55883789 145.2355957 C432.52388369 143.75132387 431.43612432 142.30245771 430.29858398 140.89526367 C429 139 429 139 429 136 C428.34 136 427.68 136 427 136 C425.61474609 134.26269531 425.61474609 134.26269531 424.0234375 131.828125 C423.43900879 130.94181396 422.85458008 130.05550293 422.25244141 129.14233398 C421.32310791 127.71062866 421.32310791 127.71062866 420.375 126.25 C419.74126465 125.28586182 419.1075293 124.32172363 418.45458984 123.32836914 C417.19562321 121.41285157 415.93921915 119.49564697 414.68554688 117.57666016 C412.68423362 114.51729456 410.6584998 111.47554871 408.625 108.4375 C408.02945312 107.54160156 407.43390625 106.64570313 406.8203125 105.72265625 C405.469969 103.70293647 404.11055159 101.69102898 402.7421875 99.68359375 C401.63230469 98.04583984 401.63230469 98.04583984 400.5 96.375 C399.8296875 95.39273438 399.159375 94.41046875 398.46875 93.3984375 C397 91 397 91 397 89 C394.46248935 90.26875532 394.15207732 91.36549842 392.875 93.875 C390.857839 97.6296566 388.60645021 101.01800287 386.0625 104.4375 C382.96733065 108.60117059 380.19553962 112.82020725 377.6171875 117.3203125 C376.21419696 119.6450746 374.75258877 121.89609123 373.24267578 124.15185547 C372.70683868 124.95332001 372.17100159 125.75478455 371.618927 126.58053589 C371.08468109 127.37895905 370.55043518 128.1773822 370 129 C369.09345109 130.35917568 368.18718829 131.71854225 367.28125 133.078125 C340.82910156 172.75634766 340.82910156 172.75634766 339.30775452 175.0383606 C338.32421443 176.51367577 337.34068359 177.98899712 336.35716248 179.46432495 C334.03626063 182.94576401 331.71521124 186.42710448 329.39379883 189.90820312 C325.59365116 195.60704543 321.79467753 201.30663225 318.00390625 207.01171875 C317.43075684 207.87369873 316.85760742 208.73567871 316.26708984 209.6237793 C315.25471283 211.14672605 314.24323675 212.6702723 313.23291016 214.19458008 C310.11163558 218.88836442 310.11163558 218.88836442 309 220 C306.07805335 220.09525367 303.17979671 220.12552736 300.25756836 220.11352539 C298.88209587 220.11374443 298.88209587 220.11374443 297.47883606 220.1139679 C294.43248164 220.1132684 291.38618755 220.10547428 288.33984375 220.09765625 C286.23377007 220.0957922 284.12769597 220.09436824 282.0216217 220.09336853 C276.46657117 220.08954231 270.91154659 220.07971114 265.35650635 220.06866455 C259.6927526 220.05845267 254.02899467 220.05387139 248.36523438 220.04882812 C237.24347815 220.03808896 226.12174123 220.0210113 215 220 C213.82379175 217.58757287 212.6589044 215.17072309 211.5 212.75 C211.16613281 212.06808594 210.83226562 211.38617188 210.48828125 210.68359375 C208.80625256 207.1479008 208 204.98070714 208 201 C207.34 201 206.68 201 206 201 C205.69707031 200.17757812 205.39414062 199.35515625 205.08203125 198.5078125 C203.09648867 193.2171052 201.10849367 188.01824497 198.5 183 C196.07453149 178.31477821 194.23564368 173.50146287 192.3828125 168.56640625 C188.75627712 159.2132232 184.67443188 150.01264556 180.04296875 141.11328125 C178.08339172 137.1427525 177 134.5033509 177 130 C176.34 130 175.68 130 175 130 C174.34 128.35 173.68 126.7 173 125 C168.41996353 132.8872092 163.94470614 140.76921892 160 149 C159.34 149 158.68 149 158 149 C157.896875 149.52980469 157.79375 150.05960938 157.6875 150.60546875 C155.0511986 159.7875867 149.23681488 168.42863099 144.27197266 176.52587891 C141.39375053 181.25078605 138.89043478 186.08836591 136.48046875 191.0703125 C134.3257037 195.33435943 131.87992234 199.41151982 129.41796875 203.50390625 C127.89097216 206.00436179 127.89097216 206.00436179 127 209 C126.34 209 125.68 209 125 209 C124.9175 209.515625 124.835 210.03125 124.75 210.5625 C123.68166105 214.0346016 121.83054604 216.86244409 120 220 C113.43586926 220.30511801 106.87357102 220.51471844 100.30395508 220.65917969 C98.07148944 220.7194072 95.83949494 220.80121608 93.60864258 220.90527344 C75.05389076 221.74885921 75.05389076 221.74885921 70.13305664 217.55883789 C68.32609879 214.42643244 67.15023822 211.42131645 66 208 C64.63280748 205.67272105 64.63280748 205.67272105 63.12890625 203.65234375 C62.70029297 203.02779297 62.27167969 202.40324219 61.83007812 201.75976562 C60.95962809 200.50840987 60.08711999 199.25848397 59.21289062 198.00976562 C56 193.31628024 56 193.31628024 56 190 C55.34 190 54.68 190 54 190 C52.30859375 187.515625 52.30859375 187.515625 50.4375 184.25 C49.81746094 183.18265625 49.19742188 182.1153125 48.55859375 181.015625 C47.30080625 178.5820111 46.4727284 176.6680014 46 174 C45.34 174 44.68 174 44 174 C43.64808594 173.32195312 43.29617187 172.64390625 42.93359375 171.9453125 C39.88774685 166.20353323 36.59738049 160.88696827 32.80078125 155.6171875 C29.5706279 150.92260454 26.82527716 145.94423503 24 141 C23.43796875 140.09894531 22.8759375 139.19789063 22.296875 138.26953125 C21 136 21 136 21 134 C20.34 134 19.68 134 19 134 C17.4921875 131.8125 17.4921875 131.8125 15.875 129 C15.33617188 128.071875 14.79734375 127.14375 14.2421875 126.1875 C13.83226563 125.465625 13.42234375 124.74375 13 124 C10.51427839 126.48572161 9.84523609 128.70458534 8.625 132 C8.18414062 133.17433594 7.74328125 134.34867188 7.2890625 135.55859375 C6.86367187 136.69425781 6.43828125 137.82992187 6 139 C3.93548036 144.28548073 1.77767565 149.52604994 -0.4375 154.75 C-2.80318771 160.37669723 -4.82969444 166.09161547 -6.7890625 171.87109375 C-8 175 -8 175 -9.46484375 177.43359375 C-11.40454333 180.67629763 -12.65745963 184.08700543 -13.9375 187.625 C-14.19547363 188.32560547 -14.45344727 189.02621094 -14.71923828 189.74804688 C-15.48457338 191.83021553 -16.24298613 193.9147939 -17 196 C-17.42152344 197.15242187 -17.84304687 198.30484375 -18.27734375 199.4921875 C-19.18997741 201.9929986 -20.09790899 204.49537086 -21 207 C-21.66 207 -22.32 207 -23 207 C-23.12375 207.70125 -23.2475 208.4025 -23.375 209.125 C-24.03035014 212.13961064 -25.02443037 215.0732911 -26 218 C-46.46 218 -66.92 218 -88 218 C-89 214 -89 214 -87.27734375 210.72265625 C-86.90206543 210.11695801 -86.52678711 209.51125977 -86.14013672 208.88720703 C-84.3173168 205.8699912 -82.95870607 202.66885721 -81.5625 199.4375 C-81.2631958 198.75002686 -80.9638916 198.06255371 -80.65551758 197.35424805 C-78.20472452 191.64490255 -76.06589069 185.86373029 -74.04296875 179.98828125 C-73.10130191 177.29024704 -72.08390588 174.64355326 -71 172 C-70.34 172 -69.68 172 -69 172 C-68.896875 171.175 -68.79375 170.35 -68.6875 169.5 C-67.33546884 162.61693227 -64.34131884 156.41746525 -61.37890625 150.1015625 C-59.45925415 145.7837048 -57.73635235 141.39422179 -56 137 C-54.35649924 132.85323726 -52.70997736 128.70768423 -51.0625 124.5625 C-50.64548828 123.50740234 -50.22847656 122.45230469 -49.79882812 121.36523438 C-47.80384631 116.35465408 -45.75550882 111.39370039 -43.49609375 106.49609375 C-40.77034428 100.58452796 -38.37859828 94.55799249 -36 88.5 C-33.19739968 81.36212731 -30.30396397 74.30963054 -27.06445312 67.35742188 C-26.11741846 65.26004418 -25.27840731 63.16448016 -24.5 61 C-23.38609277 57.91341907 -22.0802811 54.97126636 -20.6875 52 C-18.56178857 47.40386717 -16.74255208 42.74977876 -15 38 C-12.97323316 32.48673078 -10.78247216 27.12315462 -8.296875 21.796875 C-6.73405366 18.42645307 -5.23103225 15.03190692 -3.75 11.625 C-2.99976562 9.91183594 -2.99976562 9.91183594 -2.234375 8.1640625 C-1.15909286 5.40780133 -0.45813662 2.91243991 0 0 Z " fill="#00722D" transform="translate(111,26)"/>
<path d="M0 0 C1.45295975 -0.01248528 1.45295975 -0.01248528 2.93527222 -0.02522278 C6.10890818 -0.04914758 9.28233838 -0.05806968 12.45605469 -0.06469727 C14.67323871 -0.07367099 16.89042214 -0.08279297 19.10760498 -0.09205627 C23.74069691 -0.10849685 28.37371694 -0.11623843 33.00683594 -0.11914062 C38.94432529 -0.1245452 44.88114106 -0.16233217 50.81843948 -0.20788479 C55.3909148 -0.23760081 59.96322599 -0.24486287 64.53578949 -0.24586678 C66.72548282 -0.25007337 68.91517646 -0.26252514 71.10477448 -0.28338432 C74.16150597 -0.31020837 77.21664885 -0.30550169 80.2734375 -0.29296875 C81.17639557 -0.30780304 82.07935364 -0.32263733 83.00967407 -0.33792114 C87.51157679 -0.28529826 89.31184662 -0.13409683 92.97821045 2.71885681 C94.87792969 5.30639648 94.87792969 5.30639648 94.87792969 7.30639648 C95.53792969 7.30639648 96.19792969 7.30639648 96.87792969 7.30639648 C98.18261719 8.56420898 98.18261719 8.56420898 99.75292969 10.43139648 C100.37296875 11.1597168 100.99300781 11.88803711 101.63183594 12.63842773 C102.37304688 13.51885742 103.11425781 14.39928711 103.87792969 15.30639648 C105.81123 17.58082598 107.75056062 19.85006899 109.69042969 22.11889648 C110.20041504 22.71750488 110.71040039 23.31611328 111.23583984 23.93286133 C115.40435277 28.80683507 119.71798463 33.5263291 124.11230469 38.19702148 C125.87792969 40.30639648 125.87792969 40.30639648 125.87792969 42.30639648 C126.53792969 42.30639648 127.19792969 42.30639648 127.87792969 42.30639648 C131.87792969 46.77698472 131.87792969 46.77698472 131.87792969 49.30639648 C132.53792969 49.30639648 133.19792969 49.30639648 133.87792969 49.30639648 C133.87792969 49.96639648 133.87792969 50.62639648 133.87792969 51.30639648 C134.53792969 51.30639648 135.19792969 51.30639648 135.87792969 51.30639648 C140.87792969 56.54449172 140.87792969 56.54449172 140.87792969 61.30639648 C139.75950668 61.30859632 139.75950668 61.30859632 138.61848927 61.31084061 C120.42962159 61.34798162 102.24094482 61.40709258 84.05222797 61.49029922 C75.25608855 61.53001508 66.46003763 61.56244528 57.66381836 61.57739258 C49.99208529 61.5904479 42.32054755 61.61751089 34.64892453 61.66100955 C30.59129936 61.68353762 26.53391433 61.69931241 22.47622108 61.69828033 C18.64703924 61.69752855 14.81838649 61.71568415 10.98934174 61.74756432 C9.59351457 61.75599474 8.19762757 61.75786059 6.80178642 61.75219917 C-4.70088993 61.71180535 -16.08996147 63.12243054 -25.37207031 70.43139648 C-26.26410156 71.11459961 -27.15613281 71.79780273 -28.07519531 72.50170898 C-30.19821569 74.14607025 -30.19821569 74.14607025 -31.12207031 76.30639648 C-31.78207031 76.30639648 -32.44207031 76.30639648 -33.12207031 76.30639648 C-33.50878906 77.08756836 -33.50878906 77.08756836 -33.90332031 77.88452148 C-34.84570782 79.75721462 -35.80795133 81.61992334 -36.77832031 83.47827148 C-37.39309483 84.67088128 -38.00767327 85.86359218 -38.62207031 87.05639648 C-39.23050781 88.22686523 -39.83894531 89.39733398 -40.46582031 90.60327148 C-43.62351119 97.25421893 -44.48992438 103.74965983 -44.43457031 111.05639648 C-44.42893066 111.84208008 -44.42329102 112.62776367 -44.41748047 113.43725586 C-44.19635241 124.13022073 -41.94733565 133.8247906 -35.12207031 142.30639648 C-31.98867783 145.29501176 -28.68094181 147.84608339 -25.12207031 150.30639648 C-24.54714844 150.71631836 -23.97222656 151.12624023 -23.37988281 151.54858398 C-15.75913171 156.4395138 -6.60910825 158.41093578 2.30566406 158.89990234 C3.34231579 158.95713549 3.34231579 158.95713549 4.39990997 159.01552486 C11.96142533 159.40753193 19.52652488 159.53177166 27.09667969 159.62280273 C28.57597317 159.64345643 30.05526188 159.6644545 31.5345459 159.68577576 C35.36806287 159.74013028 39.20162505 159.78990928 43.03521729 159.83862305 C46.9711087 159.88948416 50.90693706 159.94482767 54.84277344 159.99975586 C62.52110621 160.10627245 70.199494 160.20752295 77.87792969 160.30639648 C77.87792969 153.04639648 77.87792969 145.78639648 77.87792969 138.30639648 C75.3069751 138.44779053 75.3069751 138.44779053 72.68408203 138.59204102 C66.96618059 138.88446222 61.24852936 139.0900419 55.52536583 139.23901558 C52.05979909 139.33230476 48.60243816 139.45820991 45.14160156 139.66430664 C22.90566504 140.95399874 22.90566504 140.95399874 16.28570557 136.60241699 C11.97847597 132.49746747 8.98635341 127.79159501 6.17630005 122.58258057 C4.15010265 119.03043674 1.59860402 115.95268465 -0.99707031 112.80639648 C-5.12207031 107.55398491 -5.12207031 107.55398491 -5.12207031 105.30639648 C-5.78207031 105.30639648 -6.44207031 105.30639648 -7.12207031 105.30639648 C-8.498668 103.5849187 -9.79979795 101.80261994 -11.05957031 99.99389648 C-13.65165991 96.15840994 -13.65165991 96.15840994 -16.81347656 92.82592773 C-18.75102494 90.57605812 -18.70720999 88.18813789 -19.12207031 85.30639648 C1.59168189 85.28306932 22.30543194 85.26541821 43.0191946 85.25458431 C52.63625464 85.24942097 62.25330652 85.24237754 71.87036133 85.23095703 C80.24944138 85.22101137 88.62851553 85.21454334 97.00760132 85.21230799 C101.44709094 85.21100068 105.88656367 85.20791357 110.3260479 85.20066643 C114.49970242 85.19390806 118.67333302 85.19177914 122.84699249 85.1932888 C124.38334088 85.19301239 125.91969003 85.19100618 127.45603371 85.18719101 C129.54452586 85.18225662 131.63292626 85.18339723 133.72142029 85.18614197 C134.89301917 85.18522017 136.06461805 85.18429838 137.27171993 85.18334866 C139.87792969 85.30639648 139.87792969 85.30639648 140.87792969 86.30639648 C140.97635302 88.02500753 141.00425009 89.74768929 141.00491333 91.46911621 C141.00773315 92.5881282 141.01055298 93.7071402 141.01345825 94.86006165 C141.01042191 96.7177845 141.01042191 96.7177845 141.00732422 98.61303711 C141.0099527 100.55668404 141.0099527 100.55668404 141.01263428 102.53959656 C141.01720826 106.10354985 141.0154192 109.66747432 141.01225519 113.23142815 C141.00973141 116.95323644 141.01206918 120.6750422 141.01364136 124.39685059 C141.015463 130.64811651 141.01305688 136.89937063 141.00830078 143.15063477 C141.00285817 150.38800772 141.00462083 157.62535251 141.01012719 164.86272478 C141.01465847 171.06568408 141.01530879 177.26863487 141.01268852 183.47159529 C141.01112583 187.18112621 141.01093176 190.89064387 141.01422501 194.60017395 C141.01763778 198.73338502 141.01291374 202.86654718 141.00732422 206.99975586 C141.00934845 208.23823776 141.01137268 209.47671967 141.01345825 210.75273132 C141.01063843 211.87174332 141.0078186 212.99075531 141.00491333 214.14367676 C141.00434779 215.61152744 141.00434779 215.61152744 141.00377083 217.10903168 C140.87792969 219.30639648 140.87792969 219.30639648 139.87792969 220.30639648 C137.99273999 220.41171467 136.10356847 220.44606704 134.2154541 220.4535675 C132.9849382 220.46072281 131.7544223 220.46787811 130.48661804 220.47525024 C129.10989405 220.47809102 127.73316979 220.48080269 126.35644531 220.48339844 C124.91591731 220.48966095 123.47539093 220.49630756 122.03486633 220.50331116 C117.284649 220.52441028 112.53443119 220.53473101 107.78417969 220.54467773 C106.14608239 220.54872558 104.50798526 220.55284251 102.86988831 220.55702782 C95.16035824 220.57610615 87.45083781 220.59032168 79.74128866 220.59863979 C70.87065563 220.60836959 62.00027498 220.63456548 53.1297307 220.67514068 C46.26070985 220.70546882 39.39176051 220.72012506 32.52267408 220.7234208 C28.42799163 220.72575585 24.33357788 220.73450934 20.2389679 220.75988197 C-12.44182251 220.9519884 -12.44182251 220.9519884 -26.12207031 216.30639648 C-27.07597153 215.99817963 -28.02987274 215.68996277 -29.01268005 215.37240601 C-31.21460234 214.6351063 -33.35050371 213.81566988 -35.49707031 212.93139648 C-36.24545166 212.63031982 -36.99383301 212.32924316 -37.76489258 212.01904297 C-48.22879903 207.72381006 -57.08824796 202.08176325 -66.12207031 195.30639648 C-67.11207031 194.64639648 -68.10207031 193.98639648 -69.12207031 193.30639648 C-69.12207031 192.64639648 -69.12207031 191.98639648 -69.12207031 191.30639648 C-69.67894531 191.07952148 -70.23582031 190.85264648 -70.80957031 190.61889648 C-73.78366619 188.93089612 -75.84215896 186.83963132 -78.12207031 184.30639648 C-78.12207031 183.64639648 -78.12207031 182.98639648 -78.12207031 182.30639648 C-78.78207031 182.30639648 -79.44207031 182.30639648 -80.12207031 182.30639648 C-81.93565109 180.01041543 -83.60513562 177.72195371 -85.24707031 175.30639648 C-85.73699463 174.58814697 -86.22691895 173.86989746 -86.73168945 173.12988281 C-103.52409165 147.96731637 -110.98940092 118.51480534 -106.30957031 88.36889648 C-105.29830754 83.53028501 -103.82080031 78.94129341 -102.12207031 74.30639648 C-101.76113281 73.21198242 -101.40019531 72.11756836 -101.02832031 70.98999023 C-98.48827777 63.44313306 -95.47735485 56.95393604 -91.12207031 50.30639648 C-89.81365706 48.10653684 -88.50554023 45.90651574 -87.20019531 43.70483398 C-86.84441406 43.24334961 -86.48863281 42.78186523 -86.12207031 42.30639648 C-85.46207031 42.30639648 -84.80207031 42.30639648 -84.12207031 42.30639648 C-83.71214844 41.42661133 -83.71214844 41.42661133 -83.29394531 40.52905273 C-74.54360139 23.9325671 -51.89426409 12.02873431 -34.88134766 6.59008789 C-29.66287219 5.02617772 -24.40797815 3.62200312 -19.12207031 2.30639648 C-18.45045994 2.1308319 -17.77884956 1.95526731 -17.08688736 1.77438259 C-11.33444574 0.36197393 -5.90856656 0.00438869 0 0 Z " fill="#00722D" transform="translate(737.1220703125,25.693603515625)"/>
<path d="M0 0 C3.76888249 0.01896937 7.53777497 0.02053297 11.30669785 0.02407622 C18.41775884 0.03333799 25.52867869 0.05787073 32.639678 0.08812469 C40.74628348 0.12185339 48.8528963 0.13820076 56.95955467 0.153211 C73.6115654 0.18442677 90.2634348 0.23707079 106.91534042 0.30418181 C106.25534042 2.61418181 105.59534042 4.92418181 104.91534042 7.30418181 C104.25534042 7.30418181 103.59534042 7.30418181 102.91534042 7.30418181 C102.53635605 8.59582244 102.53635605 8.59582244 102.14971542 9.91355681 C100.84879235 13.48697841 99.20286389 16.34784644 97.16534042 19.55418181 C96.4434401 20.69967114 95.72209101 21.84550802 95.00127792 22.99168181 C93.96873886 24.63136931 93.96873886 24.63136931 92.91534042 26.30418181 C91.86826972 28.0509538 90.82602803 29.80063666 89.79034042 31.55418181 C87.90902764 34.71519516 85.93573202 37.77259404 83.85284042 40.80418181 C80.72925244 45.41126805 78.28728084 50.27692756 75.91534042 55.30418181 C75.25534042 55.30418181 74.59534042 55.30418181 73.91534042 55.30418181 C73.72971542 56.23230681 73.72971542 56.23230681 73.54034042 57.17918181 C72.91534042 59.30418181 72.91534042 59.30418181 70.91534042 61.30418181 C68.00124716 61.50115412 65.18088927 61.57367427 62.26568222 61.55955291 C60.9213134 61.56498359 60.9213134 61.56498359 59.54978561 61.57052398 C57.59747144 61.57743134 55.6451379 61.57992092 53.69281197 61.5785768 C50.59309359 61.57761264 47.4937231 61.59054509 44.39405441 61.60755706 C35.5785056 61.65383398 26.76298884 61.67839422 17.94732285 61.68504119 C12.55671449 61.690086 7.16646316 61.71449718 1.77597618 61.75036788 C-0.27028817 61.76010849 -2.31660203 61.76252949 -4.36288261 61.75719619 C-18.79081189 61.72139324 -30.47884196 62.63107544 -43.08465958 70.30418181 C-44.07465958 70.30418181 -45.06465958 70.30418181 -46.08465958 70.30418181 C-46.08465958 70.96418181 -46.08465958 71.62418181 -46.08465958 72.30418181 C-47.73465958 72.96418181 -49.38465958 73.62418181 -51.08465958 74.30418181 C-51.08465958 74.96418181 -51.08465958 75.62418181 -51.08465958 76.30418181 C-51.74465958 76.30418181 -52.40465958 76.30418181 -53.08465958 76.30418181 C-53.08465958 76.96418181 -53.08465958 77.62418181 -53.08465958 78.30418181 C-53.74465958 78.30418181 -54.40465958 78.30418181 -55.08465958 78.30418181 C-55.51585098 79.38312713 -55.51585098 79.38312713 -55.95575333 80.48386931 C-56.67529233 82.28147195 -57.39647248 84.07841915 -58.11981583 85.87449431 C-58.62835098 87.13906463 -58.62835098 87.13906463 -59.14715958 88.42918181 C-59.65956192 89.7014865 -59.65956192 89.7014865 -60.18231583 90.99949431 C-65.51438738 104.6182052 -63.8530392 121.93061788 -58.15497208 135.12058806 C-56.71339795 138.06160973 -55.03904805 140.6779723 -53.08465958 143.30418181 C-52.51489395 144.09953338 -51.94512833 144.89488494 -51.35809708 145.71433806 C-43.62856709 154.51962738 -32.20324511 157.58598405 -21.08465958 159.30418181 C-20.37861084 159.47731399 -19.6725621 159.65044616 -18.94511795 159.82882476 C-15.03283784 160.47897579 -11.21730753 160.41530006 -7.25873184 160.38255095 C-5.43838433 160.37643786 -3.61803618 160.3705108 -1.79768753 160.36474395 C-0.83701937 160.36007173 0.1236488 160.3553995 1.11342812 160.3505857 C6.21212941 160.33137678 11.31076885 160.34661778 16.40948105 160.35691619 C22.89256419 160.3691738 29.37498613 160.37075602 35.85796738 160.32835174 C41.10314983 160.29495229 46.34702839 160.30037993 51.59220695 160.33192039 C53.58847318 160.33684523 55.58482757 160.32755922 57.58095741 160.3037107 C60.37545195 160.27227597 63.16559529 160.29048389 65.96001816 160.32005095 C66.78150848 160.29906844 67.60299881 160.27808593 68.44938278 160.25646758 C71.99061029 160.33944911 74.07695721 160.50685103 76.7050457 163.00625205 C78.25539668 165.04544792 79.60138386 167.10661461 80.91534042 169.30418181 C81.8268898 170.677815 82.74175525 172.04925947 83.66143417 173.41746306 C84.56183133 174.81510673 85.45891416 176.21489057 86.35284042 177.61668181 C86.8243956 178.35217254 87.29595078 179.08766326 87.7817955 179.84544158 C88.72267039 181.31368174 89.66240061 182.78265617 90.6008873 184.252424 C91.78531442 186.10122147 92.98007121 187.94261885 94.18096542 189.78074431 C94.81518417 190.75785369 95.44940292 191.73496306 96.10284042 192.74168181 C96.65327011 193.58601775 97.2036998 194.43035369 97.77080917 195.30027556 C98.91534042 197.30418181 98.91534042 197.30418181 98.91534042 199.30418181 C99.57534042 199.30418181 100.23534042 199.30418181 100.91534042 199.30418181 C101.57534042 201.28418181 102.23534042 203.26418181 102.91534042 205.30418181 C103.57534042 205.30418181 104.23534042 205.30418181 104.91534042 205.30418181 C105.89190292 207.0945464 106.86846542 208.88491098 107.84502792 210.67527556 C108.82944066 212.47036497 108.82944066 212.47036497 110.91534042 213.30418181 C110.91534042 215.94418181 110.91534042 218.58418181 110.91534042 221.30418181 C92.82469547 221.26686704 74.73427207 221.20679065 56.64379597 221.12027907 C48.24236456 221.08062164 39.84102501 221.04816211 31.43951035 221.03318572 C24.10906479 221.02009974 16.77882251 220.99296027 9.44849151 220.94956875 C5.57406039 220.92710849 1.6998785 220.91126172 -2.17462349 220.91229796 C-33.03935023 220.91164957 -33.03935023 220.91164957 -47.08465958 216.30418181 C-48.33270874 215.91591216 -49.5807579 215.52764251 -50.86662674 215.12760711 C-66.74346452 210.0296616 -89.9210536 199.01027192 -98.36200333 184.03855681 C-98.60047989 183.46621306 -98.83895645 182.89386931 -99.08465958 182.30418181 C-99.74465958 182.30418181 -100.40465958 182.30418181 -101.08465958 182.30418181 C-102.60007305 180.39779167 -103.97683545 178.50661743 -105.33465958 176.49168181 C-105.73579971 175.90362761 -106.13693985 175.31557342 -106.55023575 174.70969939 C-110.09976394 169.42987404 -113.17921602 163.96309188 -116.08465958 158.30418181 C-116.6357338 157.31224822 -116.6357338 157.31224822 -117.19794083 156.30027556 C-120.43652474 150.31077096 -122.35964834 143.87082122 -124.08465958 137.30418181 C-124.35935074 136.31962005 -124.35935074 136.31962005 -124.63959122 135.31516814 C-126.57224184 127.36430348 -126.35275395 119.35230351 -126.29047012 111.22385955 C-126.27197033 108.71602723 -126.26996256 106.20856029 -126.27020645 103.70066619 C-126.26529901 102.10886609 -126.2594741 100.5170685 -126.25262833 98.92527556 C-126.2515155 98.17435134 -126.25040268 97.42342711 -126.24925613 96.64974761 C-126.20079117 91.42031341 -126.20079117 91.42031341 -125.08465958 90.30418181 C-124.98153458 89.06668181 -124.87840958 87.82918181 -124.77215958 86.55418181 C-122.12999019 62.20027269 -105.27220666 38.89214506 -87.08465958 23.30418181 C-74.60072128 13.35885123 -60.45130449 7.41359155 -45.08465958 3.30418181 C-44.07943253 3.03260756 -43.07420547 2.76103332 -42.038517 2.48122954 C-28.20354205 -0.65017013 -14.10098276 -0.08313822 0 0 Z " fill="#00722D" transform="translate(1091.084659576416,25.695818185806274)"/>
<path d="M0 0 C20.46 0 40.92 0 62 0 C63.83712206 1.83712206 63.12271686 4.41611098 63.12908131 6.86099344 C63.12471205 8.1348007 63.12471205 8.1348007 63.12025452 9.43434143 C63.12110894 10.32949382 63.12196337 11.22464621 63.12284368 12.14692444 C63.12450124 15.17031648 63.11897263 18.19365401 63.11352539 21.21704102 C63.11324355 23.37479654 63.11340119 25.53255215 63.1139679 27.69030762 C63.114256 33.56816845 63.10835719 39.44600906 63.10139394 45.32386518 C63.09516255 51.45914944 63.09455677 57.59443412 63.09336853 63.72972107 C63.09025458 75.35675432 63.08204033 86.98377823 63.07201904 98.61080736 C63.06085988 111.84395117 63.05534795 125.07709543 63.05032361 138.31024277 C63.03985777 165.54016823 63.0215115 192.77008087 63 220 C42.21 220 21.42 220 0 220 C0 147.4 0 74.8 0 0 Z " fill="#00722D" transform="translate(892,26)"/>
<path d="M0 0 C2.1875 0 2.1875 0 5 1 C7.34229342 3.88038786 10 7.18819372 10 11 C10.66 11 11.32 11 12 11 C13.52311104 13.09466387 14.92647844 15.19136226 16.3125 17.375 C20.21068423 23.37843506 24.27458525 29.22246822 28.5 35 C32.50232994 40.48506292 36.39989247 46.01036125 40.125 51.6875 C43.89322262 57.42802637 47.86204075 62.98374477 51.95214844 68.4987793 C55.7661409 73.64902642 59.42881595 78.88914249 63.05078125 84.17578125 C64.68491589 86.54347532 66.35734258 88.87096961 68.0625 91.1875 C70 94 70 94 70 96 C70.66 96 71.32 96 72 96 C73 98 73 98 73 104 C26.8 104 -19.4 104 -67 104 C-67 102.02 -67 100.04 -67 98 C-66.34 98 -65.68 98 -65 98 C-64.73243896 97.26644287 -64.46487793 96.53288574 -64.18920898 95.77709961 C-63.02210633 93.05162379 -61.71136117 90.95858416 -59.97265625 88.56640625 C-57.0961716 84.54496354 -54.27020343 80.49494116 -51.49609375 76.40234375 C-51.09558807 75.81211426 -50.6950824 75.22188477 -50.28244019 74.61376953 C-48.99984729 72.72231894 -47.7185678 70.82998382 -46.4375 68.9375 C-45.9902356 68.27735901 -45.54297119 67.61721802 -45.08215332 66.93707275 C-36.83992086 54.76901699 -28.67440119 42.55050841 -20.54858398 30.30444336 C-15.7723851 23.11302808 -10.93866982 15.96947236 -5.99902344 8.88916016 C-3.96396284 5.947916 -1.97571974 2.98128915 0 0 Z " fill="#FEA244" transform="translate(504,143)"/>
<path d="M0 0 C3.47335027 0.11124056 5.59302465 0.3087872 8.26611328 2.60888672 C9.79184294 5.25100393 10.93862912 7.90299205 12.08251953 10.72998047 C13.1156924 12.49745326 14.1778691 14.2483299 15.27001953 15.97998047 C17.38372598 19.49181566 19.24934242 23.06362624 21.08251953 26.72998047 C21.55689453 27.34873047 22.03126953 27.96748047 22.52001953 28.60498047 C24.80118886 31.70737076 26.36039532 35.28573204 28.08251953 38.72998047 C28.41251953 26.18998047 28.74251953 13.64998047 29.08251953 0.72998047 C34.36251953 0.72998047 39.64251953 0.72998047 45.08251953 0.72998047 C45.08251953 22.83998047 45.08251953 44.94998047 45.08251953 67.72998047 C39.47251953 67.72998047 33.86251953 67.72998047 28.08251953 67.72998047 C27.07189453 65.83248047 26.06126953 63.93498047 25.02001953 61.97998047 C21.53095064 55.46958617 17.83159676 49.09403907 14.08251953 42.72998047 C12.73959576 40.40195143 11.41102044 38.06630965 10.08251953 35.72998047 C8.76251953 33.41998047 7.44251953 31.10998047 6.08251953 28.72998047 C5.75251953 41.59998047 5.42251953 54.46998047 5.08251953 67.72998047 C-0.19748047 67.72998047 -5.47748047 67.72998047 -10.91748047 67.72998047 C-10.94003406 59.14191936 -10.95839704 50.5538811 -10.96929264 41.96579838 C-10.97452083 37.97840847 -10.98161731 33.99103979 -10.99291992 30.00366211 C-11.00375108 26.15872932 -11.00975779 22.31381702 -11.01235771 18.46887016 C-11.01421155 16.99879064 -11.01783138 15.52871229 -11.02321053 14.05864143 C-11.03042402 12.00643579 -11.03147128 9.9543158 -11.03100586 7.90209961 C-11.03322647 6.73183731 -11.03544708 5.56157501 -11.03773499 4.35585022 C-10.77725525 -1.33196832 -4.51331598 0.08597734 0 0 Z " fill="#00722D" transform="translate(344.91748046875,274.27001953125)"/>
<path d="M0 0 C5.61 0 11.22 0 17 0 C19.52620121 4.54535128 22.05130376 9.09128358 24.5703125 13.640625 C25.20259766 14.78144531 25.20259766 14.78144531 25.84765625 15.9453125 C26.70767964 17.49703665 27.56704215 19.04912725 28.42578125 20.6015625 C30.55542056 24.441466 32.71203385 28.25135489 35 32 C36.00067932 33.66625889 37.00076149 35.33287668 38 37 C38.03758423 35.37203491 38.03758423 35.37203491 38.07592773 33.71118164 C38.16983755 29.698684 38.27009767 25.68636618 38.37231445 21.67407227 C38.41572573 19.93485712 38.45739612 18.19559765 38.49731445 16.45629883 C38.55486768 13.96161512 38.6186042 11.4671559 38.68359375 8.97265625 C38.70030624 8.19036148 38.71701874 7.40806671 38.73423767 6.60206604 C38.88612829 1.11387171 38.88612829 1.11387171 40 0 C44.95 0 49.9 0 55 0 C55 22.11 55 44.22 55 67 C39 67 39 67 35.6796875 64.0703125 C34.69775391 62.17358398 34.69775391 62.17358398 33.875 60.125 C33.19291205 58.74338899 32.51061991 57.36187877 31.828125 55.98046875 C31.52068359 55.30032715 31.21324219 54.62018555 30.89648438 53.91943359 C29.67128411 51.29619708 28.16853239 48.8839239 26.625 46.4375 C24.57463845 43.0315275 22.77807086 39.55614171 21 36 C20.01268258 34.65724831 19.01405257 33.32267727 18 32 C17.34 30.68 16.68 29.36 16 28 C15.67 40.87 15.34 53.74 15 67 C10.05 67 5.1 67 0 67 C0 44.89 0 22.78 0 0 Z M39 40 C40 42 40 42 40 42 Z " fill="#00722D" transform="translate(155,275)"/>
<path d="M0 0 C0 0.66 0 1.32 0 2 C0.556875 2.226875 1.11375 2.45375 1.6875 2.6875 C7.2481688 5.84355527 10.00382776 10.01148327 12 16 C12 17.98 12 19.96 12 22 C7.05 22 2.1 22 -3 22 C-3.99 20.02 -4.98 18.04 -6 16 C-8.36751241 13.55494897 -9.63197903 13.0527782 -13.0234375 12.56640625 C-20.13934306 12.34715445 -20.13934306 12.34715445 -26.6875 14.6875 C-31.83923047 19.83923047 -32.04424313 26.45611519 -32.1875 33.4375 C-32.10616271 39.43205861 -31.59514387 44.00607017 -27.75 48.8125 C-23.42375744 52.25382931 -19.8968839 53.23627225 -14.4375 52.9375 C-9.91678924 52.29820757 -7.81352634 50.66611007 -5 47 C-4.31150595 45.67780555 -3.64012706 44.34627619 -3 43 C-4.39025391 43.01740234 -4.39025391 43.01740234 -5.80859375 43.03515625 C-7.00613281 43.04417969 -8.20367188 43.05320312 -9.4375 43.0625 C-10.63246094 43.07410156 -11.82742188 43.08570313 -13.05859375 43.09765625 C-16 43 -16 43 -17 42 C-17.09873816 40.00200428 -17.12971799 38.00042842 -17.125 36 C-17.12757813 34.906875 -17.13015625 33.81375 -17.1328125 32.6875 C-17 30 -17 30 -16 29 C-13.92737924 28.91232888 -11.85179706 28.89304127 -9.77734375 28.90234375 C-8.64288818 28.90484131 -7.50843262 28.90733887 -6.33959961 28.90991211 C-4.1605603 28.92356812 -4.1605603 28.92356812 -1.9375 28.9375 C4.9615625 28.9684375 4.9615625 28.9684375 12 29 C12 41.21 12 53.42 12 66 C8.37 66 4.74 66 1 66 C0.34 64.68 -0.32 63.36 -1 62 C-1.53625 62.3609375 -2.0725 62.721875 -2.625 63.09375 C-10.54080644 67.78074066 -18.10484718 67.99038815 -27 67 C-32.98368339 65.45899661 -36.96284375 62.69183023 -41 58 C-41.50402344 57.54367187 -42.00804687 57.08734375 -42.52734375 56.6171875 C-48.80488095 50.50848382 -49.93609838 41.46714377 -50.375 33 C-50.10847465 26.57533619 -48.87901912 18.75803824 -46 13 C-45.34 13 -44.68 13 -44 13 C-43.92652344 12.43410156 -43.85304688 11.86820312 -43.77734375 11.28515625 C-41.88260102 5.7151839 -35.64256081 1.35951682 -30.5703125 -1.25 C-20.44525664 -4.70247806 -9.86326836 -3.74047197 0 0 Z " fill="#00712D" transform="translate(829,276)"/>
<path d="M0 0 C9.9309375 -0.12375 9.9309375 -0.12375 20.0625 -0.25 C23.17764038 -0.30462402 23.17764038 -0.30462402 26.35571289 -0.36035156 C28.01968352 -0.37204463 29.68366568 -0.38223499 31.34765625 -0.390625 C32.19710815 -0.41108887 33.04656006 -0.43155273 33.92175293 -0.45263672 C40.51664111 -0.4564704 44.81773897 1.01752217 49.7421875 5.6328125 C53.51158512 10.59801902 54.19569676 12.97951044 54.3125 19.25 C54.36857422 21.20679688 54.36857422 21.20679688 54.42578125 23.203125 C53.93645091 27.5666946 52.80601635 29.66311569 50 33 C49.01 33.33 48.02 33.66 47 34 C47 34.66 47 35.32 47 36 C47.66 36 48.32 36 49 36 C49 36.66 49 37.32 49 38 C49.66 38 50.32 38 51 38 C53.64783877 43.29567753 53.40672763 48.62024815 53.56640625 54.40625 C53.73054354 58.68809223 54.04441292 62.08882584 56 66 C55 67 55 67 51.18359375 67.09765625 C49.60153318 67.09098089 48.01948841 67.07901875 46.4375 67.0625 C45.63119141 67.05798828 44.82488281 67.05347656 43.99414062 67.04882812 C41.99606244 67.03700518 39.99802217 67.01906914 38 67 C36.71681829 62.30950329 36.62808244 57.58690889 36.39453125 52.75585938 C36.22603401 49.62703993 35.99631117 46.98893352 35 44 C31.28574757 42.76191586 27.68709247 42.64419129 23.8125 42.4375 C21.234375 42.293125 18.65625 42.14875 16 42 C16 50.25 16 58.5 16 67 C10.72 67 5.44 67 0 67 C0 44.89 0 22.78 0 0 Z M16 14 C16 18.62 16 23.24 16 28 C19.29188269 28.05376941 22.58289426 28.09356106 25.875 28.125 C27.28072266 28.15013672 27.28072266 28.15013672 28.71484375 28.17578125 C29.61074219 28.18222656 30.50664063 28.18867188 31.4296875 28.1953125 C32.67081299 28.21102295 32.67081299 28.21102295 33.93701172 28.22705078 C36.22398157 28.19302257 36.22398157 28.19302257 38 26 C38.28062326 23.85856259 38.28062326 23.85856259 38.1875 21.5 C38.18105469 20.7059375 38.17460938 19.911875 38.16796875 19.09375 C38.12675836 16.94163609 38.12675836 16.94163609 37 15 C34.23434618 14.07811539 32.61716298 13.88214778 29.76953125 13.90234375 C28.56586914 13.90717773 28.56586914 13.90717773 27.33789062 13.91210938 C26.08782227 13.92467773 26.08782227 13.92467773 24.8125 13.9375 C23.5450293 13.94426758 23.5450293 13.94426758 22.25195312 13.95117188 C20.16793845 13.96294597 18.08396023 13.9808811 16 14 Z " fill="#00722D" transform="translate(877,275)"/>
<path d="M0 0 C0.70181396 0.00563965 1.40362793 0.0112793 2.12670898 0.01708984 C10.81112569 0.21991701 16.44726283 2.15070701 22.91015625 7.91015625 C24.125 9.3125 24.125 9.3125 24.125 11.3125 C25.115 11.6425 26.105 11.9725 27.125 12.3125 C28.2578125 14.203125 28.2578125 14.203125 29.25 16.5625 C29.58257813 17.33078125 29.91515625 18.0990625 30.2578125 18.890625 C33.7847023 28.74049743 33.89977647 43.3758283 30.22265625 53.17578125 C25.78739518 61.80954568 19.98639082 67.03300622 10.78515625 70.08984375 C0.75089512 72.5780803 -9.9568011 71.66703727 -18.875 66.3125 C-24.01395924 62.75475899 -27.04806067 58.78593572 -29.875 53.3125 C-30.19726562 52.69117188 -30.51953125 52.06984375 -30.8515625 51.4296875 C-34.14308186 43.58541239 -33.11763401 34.64293451 -32.875 26.3125 C-32.215 26.3125 -31.555 26.3125 -30.875 26.3125 C-30.813125 25.1575 -30.75125 24.0025 -30.6875 22.8125 C-29.52743499 14.14254043 -24.13176474 9.27213971 -17.5703125 3.9765625 C-12.0487907 0.56762295 -6.37365963 -0.05373433 0 0 Z M-13.6875 21.3125 C-16.33784141 25.7762329 -16.09020848 30.62533436 -16.125 35.6875 C-16.145625 36.43 -16.16625 37.1725 -16.1875 37.9375 C-16.23737469 44.9947689 -13.83890001 50.20677428 -8.875 55.3125 C-3.74751371 57.99832615 1.62367891 57.72238631 7.125 56.3125 C11.27401135 53.24583944 14.15555312 49.0843994 16.125 44.3125 C16.57273048 41.3067949 16.51000719 38.40487292 16.375 35.375 C16.35695313 34.59576172 16.33890625 33.81652344 16.3203125 33.01367188 C16.27366383 31.11273869 16.20193829 29.21244831 16.125 27.3125 C15.465 27.3125 14.805 27.3125 14.125 27.3125 C14.063125 26.425625 14.00125 25.53875 13.9375 24.625 C12.93504136 20.53805325 11.28475486 19.00985171 8.125 16.3125 C0.42694645 12.46347323 -8.26718598 15.33146383 -13.6875 21.3125 Z " fill="#00722D" transform="translate(996.875,272.6875)"/>
<path d="M0 0 C5.28 0 10.56 0 16 0 C16.01981934 1.33699951 16.03963867 2.67399902 16.06005859 4.05151367 C16.13620817 9.01833733 16.22491148 13.98487162 16.31738281 18.95141602 C16.35563385 21.09979534 16.39049347 23.24823787 16.421875 25.39672852 C16.46760937 28.48737146 16.52559056 31.57758081 16.5859375 34.66796875 C16.59748871 35.62648239 16.60903992 36.58499603 16.62094116 37.57255554 C16.72296892 42.19677091 16.97691786 45.75964011 19 50 C19 50.99 19 51.98 19 53 C25.54902525 54.09370039 30.21913693 54.56691551 36 51 C37.06878873 48.10759157 37.14768647 45.29437606 37.20532227 42.23144531 C37.22526749 41.29077209 37.24521271 40.35009888 37.26576233 39.38092041 C37.28247482 38.37349792 37.29918732 37.36607544 37.31640625 36.328125 C37.33718735 35.29057068 37.35796844 34.25301636 37.37937927 33.184021 C37.44471408 29.87274742 37.50368517 26.56139518 37.5625 23.25 C37.60570049 21.00389815 37.64931527 18.75780422 37.69335938 16.51171875 C37.80037907 11.00789292 37.90169192 5.50398805 38 0 C43.28 0 48.56 0 54 0 C54.07447946 6.81353397 54.12875808 13.62682787 54.16479492 20.44067383 C54.17982729 22.75582002 54.2002587 25.070938 54.22631836 27.38598633 C54.26294596 30.72484324 54.27978241 34.0633217 54.29296875 37.40234375 C54.30845261 38.42770737 54.32393646 39.45307098 54.33988953 40.50950623 C54.34169963 48.34077074 53.10301767 54.62242617 48.9375 61.3125 C41.2006806 68.39086668 32.34159916 68.77086343 22.30078125 68.3828125 C15.50406849 67.91244152 9.66436971 66.23473805 5 61.0625 C-0.30436492 52.94019121 -0.14769111 44.65797014 -0.09765625 35.25390625 C-0.0962413 34.24279282 -0.09482635 33.23167938 -0.09336853 32.18992615 C-0.08779961 28.98075319 -0.07525287 25.77165164 -0.0625 22.5625 C-0.05748098 20.37825622 -0.05291878 18.19401134 -0.04882812 16.00976562 C-0.03784036 10.67314984 -0.02059724 5.336587 0 0 Z " fill="#00722D" transform="translate(1062,275)"/>
<path d="M0 0 C0.74886475 0.00523682 1.49772949 0.01047363 2.26928711 0.01586914 C3.07817383 0.0190918 3.88706055 0.02231445 4.72045898 0.02563477 C5.5705957 0.03401367 6.42073242 0.04239258 7.29663086 0.05102539 C8.15063477 0.05553711 9.00463867 0.06004883 9.88452148 0.06469727 C12.00108749 0.07652166 14.11761771 0.0944577 16.23413086 0.11352539 C17.65325994 4.0293041 19.06896564 7.94631257 20.48413086 11.86352539 C20.87987305 12.95536133 21.27561523 14.04719727 21.68334961 15.17211914 C23.99491153 21.57628249 26.22201266 27.99824752 28.33081055 34.47216797 C29.2099357 37.04277743 30.19066469 39.54321043 31.23413086 42.05102539 C37.23413086 56.71769206 37.23413086 56.71769206 37.23413086 63.11352539 C37.89413086 63.11352539 38.55413086 63.11352539 39.23413086 63.11352539 C39.23413086 64.43352539 39.23413086 65.75352539 39.23413086 67.11352539 C33.62413086 67.11352539 28.01413086 67.11352539 22.23413086 67.11352539 C17.23413086 56.23852539 17.23413086 56.23852539 17.23413086 55.11352539 C6.34413086 54.61852539 6.34413086 54.61852539 -4.76586914 54.11352539 C-5.42586914 57.41352539 -6.08586914 60.71352539 -6.76586914 64.11352539 C-7.42586914 65.10352539 -8.08586914 66.09352539 -8.76586914 67.11352539 C-11.55439805 67.33460326 -14.11240095 67.39460074 -16.89086914 67.30102539 C-18.02202148 67.28072266 -18.02202148 67.28072266 -19.17602539 67.26000977 C-21.03961041 67.22462524 -22.90282892 67.17081706 -24.76586914 67.11352539 C-24.52968152 65.65289145 -24.27581503 64.19511876 -24.01586914 62.73852539 C-23.87665039 61.92641602 -23.73743164 61.11430664 -23.59399414 60.27758789 C-22.64760631 56.6616721 -21.28021081 53.35010675 -19.86254883 49.89672852 C-17.54535456 44.0160485 -15.70364413 37.96142474 -13.76586914 31.94750977 C-11.99113596 26.52278824 -10.04343506 21.32160774 -7.65405273 16.13916016 C-6.36675687 13.2032905 -5.46723133 10.19007696 -4.57836914 7.11352539 C-2.55962895 0.16455516 -2.55962895 0.16455516 0 0 Z M6.23413086 21.11352539 C5.39582113 23.88294145 4.56331052 26.65387608 3.73413086 29.42602539 C3.4956543 30.21170898 3.25717773 30.99739258 3.01147461 31.80688477 C2.78588867 32.56420898 2.56030273 33.3215332 2.32788086 34.10180664 C2.1184082 34.79830322 1.90893555 35.4947998 1.69311523 36.21240234 C1.11678822 38.27360372 1.11678822 38.27360372 1.23413086 41.11352539 C5.19413086 41.11352539 9.15413086 41.11352539 13.23413086 41.11352539 C12.77006836 39.00977539 12.77006836 39.00977539 12.29663086 36.86352539 C12.12260742 36.07461914 11.94858398 35.28571289 11.76928711 34.47290039 C11.28657486 32.34473836 10.77249908 30.22819697 10.23413086 28.11352539 C9.57413086 28.11352539 8.91413086 28.11352539 8.23413086 28.11352539 C7.90413086 25.80352539 7.57413086 23.49352539 7.23413086 21.11352539 C6.90413086 21.11352539 6.57413086 21.11352539 6.23413086 21.11352539 Z " fill="#00722D" transform="translate(584.765869140625,274.886474609375)"/>
<path d="M0 0 C5.94 0 11.88 0 18 0 C23.71736227 14.07350713 28.8580131 28.30973085 33.75268555 42.6875 C35.73490805 48.47958851 37.81841796 54.16019207 40.27880859 59.76806641 C41 62 41 62 41 67 C35.39 67 29.78 67 24 67 C21 58.5 21 58.5 21 54 C13.41 54.33 5.82 54.66 -2 55 C-3.32 58.96 -4.64 62.92 -6 67 C-11.61 67 -17.22 67 -23 67 C-21.89966807 61.3149517 -20.38990526 56.30058573 -18.15234375 50.97265625 C-15.74895658 44.77273207 -13.92575105 38.3612924 -12 32 C-11.34 32 -10.68 32 -10 32 C-9.90847656 31.24460937 -9.81695312 30.48921875 -9.72265625 29.7109375 C-8.71586244 24.54091524 -7.0675477 19.6281167 -5.4375 14.625 C-5.10814453 13.60277344 -4.77878906 12.58054687 -4.43945312 11.52734375 C-3.63004122 9.01699378 -2.81678851 6.50795756 -2 4 C-1.34 4 -0.68 4 0 4 C0 2.68 0 1.36 0 0 Z M8 21 C7.16169027 23.76941606 6.32917966 26.54035069 5.5 29.3125 C5.26152344 30.09818359 5.02304687 30.88386719 4.77734375 31.69335938 C4.55175781 32.45068359 4.32617188 33.20800781 4.09375 33.98828125 C3.88427734 34.68477783 3.67480469 35.38127441 3.45898438 36.09887695 C2.88265736 38.16007833 2.88265736 38.16007833 3 41 C7.29 41 11.58 41 16 41 C14.02 34.4 12.04 27.8 10 21 C9.34 21 8.68 21 8 21 Z " fill="#00722D" transform="translate(263,275)"/>
<path d="M0 0 C0 0.66 0 1.32 0 2 C0.556875 2.226875 1.11375 2.45375 1.6875 2.6875 C8.09733273 6.32551317 11.43391027 12.28448858 14 19 C14 20.32 14 21.64 14 23 C8.39 23 2.78 23 -3 23 C-3.99 20.69 -4.98 18.38 -6 16 C-10.81910265 12.9157743 -14.29333844 12.73534704 -19.88671875 13.48046875 C-22.30625666 14.07529045 -23.96557869 14.53141562 -26 16 C-29.75069682 25.75461075 -30.29148869 36.12553394 -27 46 C-25.38088182 48.97917745 -24.17811695 50.51434627 -21.01953125 51.81640625 C-15.4282526 53.34654963 -11.46058194 52.78709954 -6 51 C-5.87625 50.443125 -5.7525 49.88625 -5.625 49.3125 C-5 47 -5 47 -3 42 C2.61 42 8.22 42 14 42 C11.99069738 49.92558256 9.65098847 57.46869394 2.890625 62.6015625 C-5.82811758 67.74261416 -14.55160503 69.2090806 -24.4375 66.8125 C-26.30225878 66.24186343 -28.15754797 65.6390007 -30 65 C-31.09054687 64.62875 -31.09054687 64.62875 -32.203125 64.25 C-39.18209263 60.95284994 -42.80360128 53.45928633 -45.33056641 46.50097656 C-48.0316753 36.40974407 -47.7661996 24.33993983 -43 15 C-42.31550781 13.44539063 -42.31550781 13.44539063 -41.6171875 11.859375 C-39.81276983 8.66895536 -37.86869979 6.66845878 -35.125 4.25 C-34.28195312 3.49203125 -33.43890625 2.7340625 -32.5703125 1.953125 C-23.55952451 -4.89397834 -10.08767288 -4.08959712 0 0 Z " fill="#00722D" transform="translate(468,276)"/>
<path d="M0 0 C8.9409375 -0.12375 8.9409375 -0.12375 18.0625 -0.25 C19.93043213 -0.28641602 21.79836426 -0.32283203 23.72290039 -0.36035156 C25.22280736 -0.37204674 26.72272714 -0.3822366 28.22265625 -0.390625 C28.98574097 -0.41108887 29.74882568 -0.43155273 30.53503418 -0.45263672 C36.18048016 -0.45627366 39.31320094 0.8420711 44 4 C44.65073486 4.4220874 45.30146973 4.8441748 45.97192383 5.27905273 C48.60804251 7.53425294 49.83547864 9.20522851 50.54833984 12.64892578 C50.77230254 15.80951599 50.76939065 18.89542674 50.6875 22.0625 C50.70232422 23.13822266 50.71714844 24.21394531 50.73242188 25.32226562 C50.64989077 33.15301121 50.64989077 33.15301121 47.6171875 37.10546875 C46.75351563 37.73066406 45.88984375 38.35585938 45 39 C44.154375 39.7425 43.30875 40.485 42.4375 41.25 C38.76915271 43.88368523 35.67873662 44.12614575 31.234375 44.09765625 C30.43225586 44.09515869 29.63013672 44.09266113 28.80371094 44.09008789 C27.79598633 44.08098389 26.78826172 44.07187988 25.75 44.0625 C22.5325 44.041875 19.315 44.02125 16 44 C16 51.59 16 59.18 16 67 C10.72 67 5.44 67 0 67 C0 44.89 0 22.78 0 0 Z M16 14 C16 19.28 16 24.56 16 30 C19.3103125 30.0928125 19.3103125 30.0928125 22.6875 30.1875 C23.92886719 30.22230469 25.17023438 30.25710938 26.44921875 30.29296875 C30.25840883 29.97867914 32.11788851 29.49746879 35 27 C35.75128877 24.61128654 35.75128877 24.61128654 35.5625 22 C35.56378906 21.13375 35.56507812 20.2675 35.56640625 19.375 C35.17366109 16.92307525 35.17366109 16.92307525 33.44921875 15.19921875 C30.05937715 13.53943985 26.928636 13.6779448 23.25 13.8125 C19.66125 13.9053125 19.66125 13.9053125 16 14 Z " fill="#00722D" transform="translate(1152,275)"/>
<path d="M0 0 C15.84 0 31.68 0 48 0 C48 4.62 48 9.24 48 14 C37.11 14 26.22 14 15 14 C15 17.96 15 21.92 15 26 C24.57 26 34.14 26 44 26 C44 30.62 44 35.24 44 40 C34.43 40 24.86 40 15 40 C15 48.91 15 57.82 15 67 C10.05 67 5.1 67 0 67 C0 44.89 0 22.78 0 0 Z " fill="#00722D" transform="translate(26,275)"/>
<path d="M0 0 C5.28 0 10.56 0 16 0 C16 17.49 16 34.98 16 53 C26.89 53 37.78 53 49 53 C49 57.62 49 62.24 49 67 C32.83 67 16.66 67 0 67 C0 44.89 0 22.78 0 0 Z " fill="#00722D" transform="translate(654,275)"/>
<path d="M0 0 C5.28 0 10.56 0 16 0 C16 22.11 16 44.22 16 67 C10.72 67 5.44 67 0 67 C-1.81415883 65.18584117 -1.12770573 62.37554299 -1.12939453 59.93554688 C-1.13254669 58.63750122 -1.13569885 57.33945557 -1.13894653 56.0020752 C-1.13715675 54.57429979 -1.1351058 53.14652469 -1.1328125 51.71875 C-1.13348558 50.26525862 -1.13445564 48.81176736 -1.13571167 47.35827637 C-1.13718846 44.30833873 -1.1350347 41.25843034 -1.13037109 38.20849609 C-1.1246738 34.29069441 -1.12795291 30.37296122 -1.13394356 26.45516205 C-1.13754969 23.45269246 -1.13641035 20.45023923 -1.13381577 17.44776917 C-1.13314664 16.00281262 -1.13397442 14.55785461 -1.13629532 13.11289978 C-1.13882265 11.09675117 -1.13429052 9.08059738 -1.12939453 7.06445312 C-1.12859894 5.91497192 -1.12780334 4.76549072 -1.12698364 3.58117676 C-1 1 -1 1 0 0 Z " fill="#00712E" transform="translate(514,275)"/>
<path d="M0 0 C5.28 0 10.56 0 16 0 C17.81415883 1.81415883 17.12770573 4.62445701 17.12939453 7.06445312 C17.13254669 8.36249878 17.13569885 9.66054443 17.13894653 10.9979248 C17.13715675 12.42570021 17.1351058 13.85347531 17.1328125 15.28125 C17.13348558 16.73474138 17.13445564 18.18823264 17.13571167 19.64172363 C17.13718846 22.69166127 17.1350347 25.74156966 17.13037109 28.79150391 C17.1246738 32.70930559 17.12795291 36.62703878 17.13394356 40.54483795 C17.13754969 43.54730754 17.13641035 46.54976077 17.13381577 49.55223083 C17.13314664 50.99718738 17.13397442 52.44214539 17.13629532 53.88710022 C17.13882265 55.90324883 17.13429052 57.91940262 17.12939453 59.93554688 C17.12859894 61.08502808 17.12780334 62.23450928 17.12698364 63.41882324 C17 66 17 66 16 67 C10.72 67 5.44 67 0 67 C0 44.89 0 22.78 0 0 Z " fill="#00732B" transform="translate(104,275)"/>
</svg>
